<svg width="73" height="75" viewBox="0 0 73 75" fill="none" xmlns="http://www.w3.org/2000/svg">
<path fill-rule="evenodd" clip-rule="evenodd" d="M37.1731 28.3537C46.1585 28.3537 54.3116 27.0084 60.2083 24.8307C66.112 22.6507 69.7854 19.6338 69.7854 16.3052C69.7854 12.9791 66.1114 9.97138 60.202 7.80355C54.3044 5.64026 46.1455 4.30473 37.1731 4.3248C28.2007 4.34488 20.0931 5.71132 14.2352 7.89128C8.38374 10.0688 4.7688 13.072 4.7688 16.3756C4.7688 19.6863 8.38347 22.6824 14.2289 24.8459C20.0864 27.0137 28.201 28.3537 37.1734 28.3537H37.1731Z" fill="#333333"/>
<path fill-rule="evenodd" clip-rule="evenodd" d="M37.1731 31.8627C28.2007 31.8627 20.0862 30.5228 14.2286 28.3548C8.38322 26.1914 4.76855 23.1953 4.76855 19.8846V26.3303C4.76855 29.6374 8.38322 32.6371 14.2286 34.8006C20.0862 36.9684 28.2007 38.3085 37.1731 38.3085C46.1585 38.3085 54.3116 36.9631 60.2086 34.7857C66.112 32.6057 69.7857 29.5874 69.7857 26.2602V19.8144C69.7857 23.143 66.112 26.1601 60.2086 28.34C54.3116 30.5175 46.1585 31.8627 37.1731 31.8627Z" fill="#333333"/>
<path fill-rule="evenodd" clip-rule="evenodd" d="M37.1731 42.662C28.2007 42.662 20.0862 41.322 14.2286 39.1541C8.38322 36.9907 4.76855 33.9946 4.76855 30.6838V37.1296C4.76855 40.4367 8.38322 43.4364 14.2286 45.5998C20.0862 47.7677 28.2007 49.1077 37.1731 49.1077C46.1585 49.1077 54.3116 47.7624 60.2086 45.585C66.112 43.405 69.7857 40.3867 69.7857 37.0594V30.6137C69.7857 33.9423 66.112 36.9593 60.2086 39.1393C54.3116 41.3168 46.1585 42.662 37.1731 42.662Z" fill="#333333"/>
<path fill-rule="evenodd" clip-rule="evenodd" d="M37.1731 53.464C28.2007 53.464 20.0862 52.124 14.2286 49.9561C8.38322 47.7927 4.76855 44.7965 4.76855 41.4858V47.9315C4.76855 51.2387 8.38322 54.2384 14.2286 56.4018C20.0862 58.5697 28.2007 59.9097 37.1731 59.9097C46.1585 59.9097 54.3116 58.5644 60.2086 56.387C66.112 54.2069 69.7857 51.1886 69.7857 47.8614V41.4157C69.7857 44.7443 66.112 47.7613 60.2086 49.9412C54.3116 52.1188 46.1585 53.464 37.1731 53.464Z" fill="#333333"/>
<path fill-rule="evenodd" clip-rule="evenodd" d="M37.1731 64.266C28.2007 64.266 20.0862 62.926 14.2286 60.7581C8.38322 58.5947 4.76855 55.5985 4.76855 52.2878V58.7335C4.76855 62.0407 8.38322 65.0404 14.2286 67.2038C20.0862 69.3717 28.2007 70.7117 37.1731 70.7117C46.1585 70.7117 54.3116 69.3664 60.2086 67.189C66.112 65.0089 69.7857 61.9906 69.7857 58.6634V52.2177C69.7857 55.5463 66.112 58.5633 60.2086 60.7432C54.3116 62.9208 46.1585 64.266 37.1731 64.266Z" fill="#333333"/>
</svg>
