<svg width="75" height="75" viewBox="0 0 75 75" fill="none" xmlns="http://www.w3.org/2000/svg">
<g clip-path="url(#clip0_17_156)">
<path d="M37.5 0.928123C16.7812 0.928123 0 17.7187 0 38.4281C0 55 10.7437 69.0531 25.6406 74.0062C27.5156 74.3594 28.2031 73.2 28.2031 72.2031C28.2031 71.3125 28.1719 68.9531 28.1563 65.8281C17.725 68.0906 15.525 60.7969 15.525 60.7969C13.8187 56.4687 11.3531 55.3125 11.3531 55.3125C7.95625 52.9875 11.6156 53.0344 11.6156 53.0344C15.3813 53.2969 17.3594 56.8969 17.3594 56.8969C20.7031 62.6312 26.1375 60.975 28.2813 60.0156C28.6188 57.5906 29.5844 55.9375 30.6563 55C22.3281 54.0625 13.575 50.8375 13.575 36.4687C13.575 32.375 15.0281 29.0312 17.4344 26.4062C17.0125 25.4594 15.7469 21.6469 17.7625 16.4812C17.7625 16.4812 20.9031 15.475 28.075 20.325C31.075 19.4906 34.2625 19.0781 37.45 19.0594C40.6375 19.0781 43.825 19.4906 46.825 20.325C53.95 15.475 57.0906 16.4812 57.0906 16.4812C59.1062 21.6469 57.8406 25.4594 57.4656 26.4062C59.8562 29.0312 61.3094 32.375 61.3094 36.4687C61.3094 50.875 52.5438 54.0469 44.2 54.9687C45.5125 56.0937 46.7313 58.3937 46.7313 61.9062C46.7313 66.925 46.6844 70.9562 46.6844 72.175C46.6844 73.1594 47.3406 74.3312 49.2625 73.9562C64.2656 69.0375 75 54.975 75 38.4281C75 17.7187 58.2094 0.928123 37.5 0.928123Z" fill="#333333"/>
</g>
<defs>
<clipPath id="clip0_17_156">
<rect width="75" height="75" fill="white"/>
</clipPath>
</defs>
</svg>
