<svg width="73" height="73" viewBox="0 0 73 73" fill="none" xmlns="http://www.w3.org/2000/svg">
<path fill-rule="evenodd" clip-rule="evenodd" d="M68.9798 3.00589H2.9624V69.9941H68.9798V3.00589ZM36.0829 52.8326C36.0829 58.4672 32.7767 61.7483 27.0772 61.7483C21.634 61.7483 18.3278 58.4672 18.1817 53.4445V53.2962H23.5337V53.4074C23.6433 55.4648 24.8489 56.9104 27.0042 56.9104C29.3425 56.9104 30.5665 55.4831 30.5665 52.7956V34.3162H36.0829V52.8326ZM61.4507 53.0921C61.4507 58.3931 57.3955 61.7483 50.8197 61.7483C44.5177 61.7483 40.5355 58.6901 40.2253 53.9446L40.2068 53.6481H45.5225L45.5405 53.8334C45.7417 55.8355 47.8789 57.1887 50.9658 57.1887C53.9067 57.1887 55.9343 55.7614 55.9343 53.7039V53.6852C55.9343 51.9247 54.6373 50.9422 51.3677 50.2563L48.591 49.6819C43.1111 48.5512 40.7547 45.9561 40.7547 41.897V41.8783C40.7547 36.9109 44.9561 33.6302 50.8012 33.6302C56.9571 33.6302 60.574 36.9296 60.9208 41.3964L60.9393 41.6376H55.7517L55.7151 41.4152C55.4044 39.506 53.5779 38.1716 50.8012 38.1716C48.0796 38.1899 46.2711 39.4502 46.2711 41.4522V41.4705C46.2711 43.2131 47.5501 44.251 50.6551 44.8999L53.4499 45.4742C59.0213 46.642 61.4507 48.9031 61.4507 53.0738V53.0921Z" fill="#333333"/>
</svg>
