<svg width="74" height="74" viewBox="0 0 74 74" fill="none" xmlns="http://www.w3.org/2000/svg">
<g clip-path="url(#clip0_18_167)">
<path d="M63.0105 63.2747H52.0531V46.3844C52.0531 42.3568 51.9801 37.172 46.3542 37.172C40.6472 37.172 39.774 41.5603 39.774 46.0912V63.2735H28.8167V28.5404H39.3358V33.287H39.483C40.5357 31.5154 42.0569 30.0579 43.8846 29.0699C45.7122 28.0819 47.7779 27.6003 49.8617 27.6764C60.9674 27.6764 63.015 34.8666 63.015 44.2206L63.0105 63.2747ZM16.4531 23.7926C15.1955 23.7928 13.9661 23.426 12.9203 22.7384C11.8745 22.0509 11.0593 21.0735 10.5778 19.93C10.0963 18.7864 9.97015 17.528 10.2153 16.3138C10.4604 15.0997 11.0658 13.9844 11.9549 13.1089C12.844 12.2334 13.9769 11.6371 15.2104 11.3954C16.4438 11.1537 17.7223 11.2774 18.8843 11.7509C20.0463 12.2244 21.0395 13.0265 21.7384 14.0556C22.4373 15.0847 22.8105 16.2948 22.8107 17.5326C22.8108 18.3546 22.6465 19.1685 22.3271 19.9279C22.0077 20.6873 21.5394 21.3773 20.9491 21.9586C20.3587 22.5399 19.6578 23.0011 18.8864 23.3158C18.115 23.6304 17.2882 23.7925 16.4531 23.7926ZM21.9318 63.2747H10.9631V28.5404H21.9318V63.2747ZM68.4732 1.25919H5.45699C4.0267 1.2433 2.64851 1.78699 1.62527 2.77078C0.602032 3.75457 0.0174559 5.09798 0 6.50579V68.7898C0.0168584 70.1983 0.60106 71.5426 1.62426 72.5274C2.64747 73.5122 4.02599 74.057 5.45699 74.042H68.4732C69.907 74.0597 71.2894 73.5165 72.3166 72.5317C73.3439 71.5469 73.932 70.2011 73.9518 68.7898V6.5013C73.9314 5.09069 73.3429 3.74576 72.3156 2.76199C71.2883 1.77823 69.9063 1.23609 68.4732 1.2547" fill="#333333"/>
</g>
<defs>
<clipPath id="clip0_18_167">
<rect width="74" height="74" fill="white"/>
</clipPath>
</defs>
</svg>
