<svg width="235" height="76" viewBox="0 0 235 76" fill="none" xmlns="http://www.w3.org/2000/svg">
<g clip-path="url(#clip0_13_3)">
<path d="M12.5547 39.6172C11.2786 39.6172 10.1328 39.2786 9.11719 38.6016C8.10156 37.9505 7.24219 37.0521 6.53906 35.9062C5.83594 34.7604 5.3151 33.4323 4.97656 31.9219C4.66406 30.4115 4.54688 28.8099 4.625 27.1172C4.72917 25.3203 5.0026 23.4714 5.44531 21.5703C5.88802 19.6432 6.48698 17.7682 7.24219 15.9453C7.9974 14.1224 8.86979 12.3906 9.85938 10.75C10.875 9.10938 11.9818 7.67708 13.1797 6.45312C14.4036 5.22917 15.7057 4.26562 17.0859 3.5625C18.4661 2.83333 19.9115 2.46875 21.4219 2.46875C22.4115 2.46875 23.2448 2.71615 23.9219 3.21094C24.599 3.70573 25.1198 4.35677 25.4844 5.16406C25.875 5.94531 26.1224 6.83073 26.2266 7.82031C26.3307 8.8099 26.3177 9.79948 26.1875 10.7891C26.0833 11.7526 25.862 12.6901 25.5234 13.6016C25.2109 14.487 24.8203 15.2161 24.3516 15.7891C23.7526 16.5443 23.2057 16.9479 22.7109 17C22.2422 17.026 21.7865 16.8828 21.3438 16.5703C21.1615 16.4141 20.9792 16.2318 20.7969 16.0234C20.6146 15.8411 20.4193 15.6198 20.2109 15.3594C20.0026 15.0729 19.7812 14.7214 19.5469 14.3047C20.0417 14.1224 20.4974 13.8229 20.9141 13.4062C21.3307 12.9635 21.6823 12.4688 21.9688 11.9219C22.2812 11.375 22.5156 10.8021 22.6719 10.2031C22.8542 9.57812 22.9583 8.96615 22.9844 8.36719C23.0104 7.89844 22.9974 7.44271 22.9453 7C22.8932 6.53125 22.7891 6.1276 22.6328 5.78906C22.4766 5.42448 22.2552 5.13802 21.9688 4.92969C21.7083 4.69531 21.3698 4.57812 20.9531 4.57812C19.9115 4.57812 18.8958 4.98177 17.9062 5.78906C16.9167 6.57031 15.9792 7.625 15.0938 8.95312C14.2344 10.2552 13.4271 11.7526 12.6719 13.4453C11.9427 15.138 11.3047 16.8828 10.7578 18.6797C10.2109 20.4766 9.76823 22.2474 9.42969 23.9922C9.09115 25.737 8.88281 27.3255 8.80469 28.7578C8.70052 30.5547 8.76562 32.013 9 33.1328C9.23438 34.2526 9.54688 35.125 9.9375 35.75C10.3542 36.401 10.7969 36.8307 11.2656 37.0391C11.7344 37.2734 12.1641 37.3906 12.5547 37.3906C13.2839 37.3906 14.1042 37.0521 15.0156 36.375C15.9271 35.6979 16.7995 34.7734 17.6328 33.6016C18.4661 32.4557 19.2083 31.1276 19.8594 29.6172C20.5365 28.1068 21.0182 26.5182 21.3047 24.8516C20.6536 24.8516 19.9896 24.8646 19.3125 24.8906C18.6615 24.8906 18.0365 24.9036 17.4375 24.9297C16.8385 24.9557 16.3047 24.9948 15.8359 25.0469C15.3672 25.0729 15.0026 25.112 14.7422 25.1641C14.5599 25.0859 14.4297 24.9948 14.3516 24.8906C14.2995 24.7865 14.2474 24.6693 14.1953 24.5391C14.1432 24.4349 14.1172 24.3047 14.1172 24.1484C14.1172 23.9922 14.1432 23.849 14.1953 23.7188C14.2474 23.5885 14.3125 23.4583 14.3906 23.3281C14.4688 23.1719 14.5729 23.0156 14.7031 22.8594C15.5365 22.7031 16.3568 22.5729 17.1641 22.4688C17.9714 22.3646 18.8047 22.2865 19.6641 22.2344C20.5495 22.1562 21.487 22.1042 22.4766 22.0781C23.4922 22.026 24.625 21.987 25.875 21.9609C26.3958 21.9349 26.7083 22 26.8125 22.1562C26.9427 22.3125 26.9036 22.7031 26.6953 23.3281C26.5391 23.8229 26.3307 24.2266 26.0703 24.5391C25.8359 24.8516 25.4323 24.9818 24.8594 24.9297C24.6771 24.9297 24.5339 24.9167 24.4297 24.8906C24.1953 26.4271 23.7005 28.0547 22.9453 29.7734C22.1901 31.4922 21.2656 33.0807 20.1719 34.5391C19.0781 35.9974 17.8672 37.2083 16.5391 38.1719C15.237 39.1354 13.9089 39.6172 12.5547 39.6172ZM46.1875 23.875C45.4062 25.0208 44.5208 26.1406 43.5312 27.2344C42.5417 28.3021 41.487 29.2656 40.3672 30.125C39.2734 30.9583 38.1406 31.6354 36.9688 32.1562C35.8229 32.6771 34.7031 32.9375 33.6094 32.9375C33.0365 32.9375 32.4115 32.7943 31.7344 32.5078C31.0833 32.2474 30.4844 31.8307 29.9375 31.2578C29.3906 30.6849 28.9479 29.9427 28.6094 29.0312C28.2969 28.1198 28.2057 27.013 28.3359 25.7109C28.4401 24.6432 28.7656 23.5234 29.3125 22.3516C29.8854 21.1536 30.5755 20.0599 31.3828 19.0703C32.2161 18.0807 33.1406 17.2604 34.1562 16.6094C35.1979 15.9583 36.2396 15.6328 37.2812 15.6328C38.2708 15.6328 38.987 15.8802 39.4297 16.375C39.8724 16.8698 40.0677 17.4818 40.0156 18.2109C39.9375 19.0182 39.7031 19.7604 39.3125 20.4375C38.9479 21.1146 38.5052 21.7266 37.9844 22.2734C37.4635 22.8203 36.9036 23.3151 36.3047 23.7578C35.7318 24.2005 35.1849 24.6042 34.6641 24.9688C34.0911 25.3594 33.5443 25.737 33.0234 26.1016C32.5026 26.4401 32.0469 26.7526 31.6562 27.0391C31.6823 27.6901 31.7995 28.237 32.0078 28.6797C32.2161 29.1224 32.4766 29.487 32.7891 29.7734C33.1016 30.0339 33.4531 30.2292 33.8438 30.3594C34.2604 30.4635 34.6771 30.5156 35.0938 30.5156C35.9792 30.5156 36.9036 30.2422 37.8672 29.6953C38.8307 29.1224 39.7682 28.4453 40.6797 27.6641C41.6172 26.8568 42.4766 26.0234 43.2578 25.1641C44.0651 24.3047 44.7292 23.5625 45.25 22.9375C45.4323 22.7292 45.6146 22.612 45.7969 22.5859C46.0052 22.5339 46.1615 22.5599 46.2656 22.6641C46.3958 22.7422 46.4609 22.8984 46.4609 23.1328C46.4609 23.3411 46.3698 23.5885 46.1875 23.875ZM36.1875 17.8594C35.875 17.8594 35.4974 18.0156 35.0547 18.3281C34.638 18.6406 34.2214 19.0964 33.8047 19.6953C33.388 20.2682 32.9974 20.9844 32.6328 21.8438C32.2682 22.6771 31.9948 23.6406 31.8125 24.7344C32.125 24.5 32.4635 24.2656 32.8281 24.0312C33.1927 23.7708 33.5573 23.4974 33.9219 23.2109C35.0417 22.3516 35.8229 21.5964 36.2656 20.9453C36.7083 20.2943 36.9557 19.7344 37.0078 19.2656C37.0599 18.7708 37.0078 18.4193 36.8516 18.2109C36.6953 17.9766 36.474 17.8594 36.1875 17.8594ZM54.9375 25.7891C54.6771 26.7786 54.3255 27.7031 53.8828 28.5625C53.4401 29.4219 52.9062 30.1641 52.2812 30.7891C51.6823 31.4141 50.9922 31.8958 50.2109 32.2344C49.4557 32.599 48.6224 32.7812 47.7109 32.7812C46.6432 32.7812 45.7969 32.5469 45.1719 32.0781C44.5729 31.6354 44.1172 31.0755 43.8047 30.3984C43.5182 29.7214 43.349 28.9792 43.2969 28.1719C43.2188 27.3646 43.1797 26.6094 43.1797 25.9062C43.1797 25.4115 43.2448 24.8646 43.375 24.2656C43.4792 23.6667 43.6354 23.0547 43.8438 22.4297C44.0521 21.8047 44.3125 21.1797 44.625 20.5547C44.9635 19.9297 45.3542 19.3568 45.7969 18.8359C45.9531 18.3932 46.1875 18.0026 46.5 17.6641C46.8385 17.3255 47.2161 17.0521 47.6328 16.8438C48.0755 16.6094 48.5443 16.4401 49.0391 16.3359C49.5339 16.2057 50.0156 16.1406 50.4844 16.1406C50.5625 16.1406 50.6276 16.1536 50.6797 16.1797C50.7578 16.2057 50.8359 16.2318 50.9141 16.2578C51.2526 16.2839 51.6693 16.4141 52.1641 16.6484C52.6849 16.8828 53.1797 17.2344 53.6484 17.7031C54.1432 18.1719 54.5599 18.7708 54.8984 19.5C55.237 20.2031 55.4062 21.0625 55.4062 22.0781C55.4062 22.2865 55.3932 22.5469 55.3672 22.8594C55.3411 23.1458 55.3151 23.3932 55.2891 23.6016C55.888 23.3672 56.513 23.0807 57.1641 22.7422C57.8151 22.4036 58.4401 22.0521 59.0391 21.6875C59.6641 21.2969 60.237 20.9062 60.7578 20.5156C61.2786 20.125 61.6953 19.7734 62.0078 19.4609C62.2682 19.2266 62.4896 19.0964 62.6719 19.0703C62.8542 19.0443 62.9844 19.0964 63.0625 19.2266C63.1406 19.3568 63.1536 19.5391 63.1016 19.7734C63.0495 20.0078 62.9062 20.2682 62.6719 20.5547C62.5417 20.7109 62.2031 21.0234 61.6562 21.4922C61.1354 21.9609 60.5104 22.4688 59.7812 23.0156C59.0521 23.5625 58.2578 24.0964 57.3984 24.6172C56.5391 25.138 55.7188 25.5286 54.9375 25.7891ZM48.3359 19.8516C48.2578 20.0859 48.2188 20.3333 48.2188 20.5938C48.2188 21.0104 48.2448 21.4531 48.2969 21.9219C48.349 22.3646 48.4792 22.7682 48.6875 23.1328C48.8958 23.4974 49.2214 23.8099 49.6641 24.0703C50.1328 24.3047 50.7708 24.4219 51.5781 24.4219C51.7083 24.4219 51.8385 24.4219 51.9688 24.4219C52.099 24.3958 52.2292 24.3698 52.3594 24.3438C52.4375 24.0052 52.5026 23.7057 52.5547 23.4453C52.6328 23.1589 52.6719 22.9115 52.6719 22.7031C52.724 22.2083 52.724 21.7005 52.6719 21.1797C52.6198 20.6589 52.5156 20.1901 52.3594 19.7734C52.2292 19.3307 52.0469 18.9792 51.8125 18.7188C51.6042 18.4323 51.3438 18.2891 51.0312 18.2891C50.5365 18.2891 50.0547 18.4323 49.5859 18.7188C49.1432 18.9792 48.7266 19.3568 48.3359 19.8516ZM45.8359 26.7266C45.8359 27.1953 45.862 27.6641 45.9141 28.1328C45.9661 28.5755 46.0703 28.9792 46.2266 29.3438C46.3828 29.6823 46.5911 29.9688 46.8516 30.2031C47.112 30.4115 47.4505 30.5156 47.8672 30.5156C48.3359 30.5156 48.7656 30.4115 49.1562 30.2031C49.5469 29.9688 49.8984 29.6823 50.2109 29.3438C50.5234 28.9792 50.7969 28.5755 51.0312 28.1328C51.2917 27.6641 51.513 27.1823 51.6953 26.6875C51.513 26.7135 51.3307 26.7396 51.1484 26.7656C50.9922 26.7656 50.8099 26.7656 50.6016 26.7656C49.612 26.7656 48.7526 26.4792 48.0234 25.9062C47.3203 25.3073 46.7734 24.5521 46.3828 23.6406C46.2266 24.1875 46.0964 24.7214 45.9922 25.2422C45.888 25.763 45.8359 26.2578 45.8359 26.7266ZM57.6328 31.8047C57.4505 32.0911 57.2552 32.2734 57.0469 32.3516C56.8125 32.4557 56.6172 32.4688 56.4609 32.3906C56.2786 32.3385 56.1615 32.2083 56.1094 32C56.0573 31.7917 56.1094 31.5312 56.2656 31.2188C56.3438 31.0625 56.526 30.7109 56.8125 30.1641C57.0729 29.6172 57.3984 28.9661 57.7891 28.2109C58.1536 27.4297 58.5573 26.5964 59 25.7109C59.4427 24.7995 59.8594 23.9401 60.25 23.1328C60.6667 22.3255 61.0443 21.6094 61.3828 20.9844C61.7214 20.3333 61.9688 19.8646 62.125 19.5781C61.8385 19.3177 61.6432 19.1354 61.5391 19.0312C61.4349 18.901 61.3568 18.6406 61.3047 18.25C61.2526 17.9115 61.3307 17.4688 61.5391 16.9219C61.7474 16.375 62.0208 15.8542 62.3594 15.3594C62.6979 14.8385 63.0755 14.3958 63.4922 14.0312C63.9089 13.6667 64.3125 13.4844 64.7031 13.4844C65.4323 13.4844 65.9401 13.7188 66.2266 14.1875C66.5391 14.6562 66.7214 15.138 66.7734 15.6328C66.8255 15.9714 66.7995 16.401 66.6953 16.9219C66.5911 17.4427 66.3958 17.9115 66.1094 18.3281C66.1875 18.3802 66.2917 18.4453 66.4219 18.5234C66.5521 18.5755 66.7604 18.6016 67.0469 18.6016C67.4635 18.6016 67.75 18.5755 67.9062 18.5234C68.0885 18.4714 68.362 18.4453 68.7266 18.4453C69.1693 18.4453 69.5339 18.5625 69.8203 18.7969C70.1068 19.0052 70.3411 19.2786 70.5234 19.6172C70.7057 19.9297 70.8359 20.2812 70.9141 20.6719C71.0182 21.0365 71.0833 21.375 71.1094 21.6875C71.1875 22.3385 71.0182 23.0156 70.6016 23.7188C70.1849 24.4219 69.6771 25.1901 69.0781 26.0234C68.7135 26.5443 68.349 27.1302 67.9844 27.7812C67.6198 28.4323 67.4635 29.0182 67.5156 29.5391C67.5677 29.8776 67.6589 30.151 67.7891 30.3594C67.9193 30.5677 68.2839 30.6719 68.8828 30.6719C69.3255 30.6719 69.8073 30.5156 70.3281 30.2031C70.875 29.8646 71.4219 29.4479 71.9688 28.9531C72.5417 28.4323 73.1016 27.8724 73.6484 27.2734C74.1953 26.6484 74.7031 26.0495 75.1719 25.4766C75.6406 24.8776 76.0312 24.3438 76.3438 23.875C76.6823 23.4062 76.9297 23.0677 77.0859 22.8594C77.2161 22.651 77.3854 22.5078 77.5938 22.4297C77.8021 22.3516 77.9844 22.3516 78.1406 22.4297C78.2969 22.5078 78.388 22.6641 78.4141 22.8984C78.4661 23.1328 78.375 23.4453 78.1406 23.8359C77.9844 24.0964 77.7109 24.513 77.3203 25.0859C76.9557 25.6589 76.5 26.2969 75.9531 27C75.4323 27.7031 74.8464 28.4323 74.1953 29.1875C73.5443 29.9167 72.8542 30.5938 72.125 31.2188C71.4219 31.8177 70.7057 32.3125 69.9766 32.7031C69.2734 33.0938 68.5964 33.2891 67.9453 33.2891C67.2682 33.2891 66.7083 33.1589 66.2656 32.8984C65.8229 32.638 65.4583 32.3255 65.1719 31.9609C64.9115 31.5703 64.7161 31.1536 64.5859 30.7109C64.4818 30.2422 64.4427 29.8125 64.4688 29.4219C64.4948 29.1094 64.5729 28.7839 64.7031 28.4453C64.8594 28.0807 65.0286 27.7161 65.2109 27.3516C65.4193 26.9609 65.6276 26.5833 65.8359 26.2188C66.0703 25.8281 66.2786 25.4505 66.4609 25.0859C66.9036 24.3307 67.2552 23.6927 67.5156 23.1719C67.8021 22.625 67.9453 22.1693 67.9453 21.8047C67.9453 21.5703 67.8932 21.362 67.7891 21.1797C67.6849 20.9974 67.5156 20.9062 67.2812 20.9062C67.125 20.9062 67.0078 20.9193 66.9297 20.9453C66.8776 20.9453 66.8125 20.9453 66.7344 20.9453C66.6823 20.9453 66.5911 20.9583 66.4609 20.9844C66.3568 20.9844 66.1875 20.9844 65.9531 20.9844C65.6146 20.9844 65.3281 20.9323 65.0938 20.8281C64.8594 20.724 64.638 20.6458 64.4297 20.5938C64.3255 20.776 64.0911 21.1667 63.7266 21.7656C63.362 22.3646 62.9323 23.0677 62.4375 23.875C61.9688 24.6823 61.4609 25.5286 60.9141 26.4141C60.3932 27.2995 59.8984 28.1328 59.4297 28.9141C58.9609 29.6693 58.5703 30.3203 58.2578 30.8672C57.9193 31.388 57.7109 31.7005 57.6328 31.8047ZM85.6797 37.5859C85.5495 38.2109 85.3802 38.9922 85.1719 39.9297C84.9896 40.8672 84.7682 41.8568 84.5078 42.8984C84.2734 43.9401 83.987 44.9688 83.6484 45.9844C83.3359 47.026 82.9844 47.9505 82.5938 48.7578C82.2031 49.5911 81.7734 50.2682 81.3047 50.7891C80.8359 51.3099 80.3151 51.5703 79.7422 51.5703C78.8828 51.5703 78.1406 51.3099 77.5156 50.7891C76.9167 50.2943 76.4089 49.6562 75.9922 48.875C75.5755 48.1198 75.276 47.2995 75.0938 46.4141C74.8854 45.5286 74.7812 44.7083 74.7812 43.9531C74.7812 42.9115 74.8724 42.0391 75.0547 41.3359C75.237 40.6589 75.5495 40.0078 75.9922 39.3828C76.4609 38.7578 77.0859 38.0938 77.8672 37.3906C78.6484 36.6875 79.651 35.8151 80.875 34.7734C81.474 34.2526 82.0469 33.7578 82.5938 33.2891C83.1406 32.8203 83.6615 32.3906 84.1562 32C84.2865 31.4792 84.4036 30.9974 84.5078 30.5547C84.638 30.0859 84.7422 29.6693 84.8203 29.3047C84.1432 30.2161 83.3229 30.9844 82.3594 31.6094C81.4219 32.2344 80.3411 32.5469 79.1172 32.5469C77.9974 32.5469 77.0859 32.0521 76.3828 31.0625C75.7057 30.0469 75.3672 28.5625 75.3672 26.6094C75.3672 25.6458 75.5495 24.5391 75.9141 23.2891C76.2786 22.0391 76.7995 20.8672 77.4766 19.7734C78.1536 18.6797 78.987 17.7552 79.9766 17C80.9661 16.2448 82.0729 15.8672 83.2969 15.8672C83.8698 15.8672 84.3646 16.0104 84.7812 16.2969C85.1979 16.5833 85.5495 16.9479 85.8359 17.3906C86.1224 17.8073 86.3438 18.263 86.5 18.7578C86.6562 19.2266 86.7734 19.6693 86.8516 20.0859C86.9036 19.9297 86.9427 19.7734 86.9688 19.6172C86.9948 19.4349 87.0339 19.2786 87.0859 19.1484C87.3464 18.263 87.6328 17.6641 87.9453 17.3516C88.2839 17.013 88.7786 16.8438 89.4297 16.8438C89.7943 16.8438 90.0938 16.9089 90.3281 17.0391C90.5885 17.1693 90.7188 17.2865 90.7188 17.3906C90.5885 17.6771 90.4844 17.8984 90.4062 18.0547C90.3281 18.2109 90.25 18.3802 90.1719 18.5625C90.0938 18.7188 90.0156 18.9271 89.9375 19.1875C89.8594 19.4479 89.7552 19.8255 89.625 20.3203C89.5729 20.5026 89.4688 20.9323 89.3125 21.6094C89.1823 22.2604 89 23.0417 88.7656 23.9531C88.5573 24.8646 88.3229 25.8672 88.0625 26.9609C87.8281 28.0547 87.5938 29.1224 87.3594 30.1641C88.0885 29.7474 88.8438 29.2396 89.625 28.6406C90.4062 28.0417 91.1484 27.4297 91.8516 26.8047C92.5547 26.1797 93.1797 25.5938 93.7266 25.0469C94.2734 24.474 94.6771 24.0052 94.9375 23.6406C95.1458 23.3281 95.3802 23.1068 95.6406 22.9766C95.901 22.8464 96.1224 22.8073 96.3047 22.8594C96.513 22.8854 96.6302 23.0026 96.6562 23.2109C96.7083 23.3932 96.6302 23.6536 96.4219 23.9922C95.8229 24.9557 95.0938 25.8932 94.2344 26.8047C93.375 27.6901 92.4896 28.5234 91.5781 29.3047C90.6927 30.0599 89.8203 30.737 88.9609 31.3359C88.1276 31.9089 87.4115 32.3776 86.8125 32.7422C86.5521 33.9141 86.3307 34.8646 86.1484 35.5938C85.9661 36.3229 85.8099 36.987 85.6797 37.5859ZM80.7578 29.8906C81.3047 29.8906 81.8125 29.7474 82.2812 29.4609C82.776 29.1745 83.2188 28.849 83.6094 28.4844C84 28.0938 84.3255 27.7031 84.5859 27.3125C84.8464 26.9219 85.0417 26.6094 85.1719 26.375C85.276 26.1406 85.3932 25.8281 85.5234 25.4375C85.6797 25.0469 85.7969 24.6693 85.875 24.3047C85.9531 23.9401 85.9792 23.6146 85.9531 23.3281C85.9531 23.0417 85.862 22.8854 85.6797 22.8594C85.5234 22.8333 85.3932 22.7292 85.2891 22.5469C85.2109 22.3646 85.1458 22.1562 85.0938 21.9219C85.0417 21.6875 85.0026 21.4531 84.9766 21.2188C84.9766 20.9844 84.9635 20.776 84.9375 20.5938C84.8073 19.6823 84.5859 19.0182 84.2734 18.6016C83.9609 18.1849 83.6094 17.9766 83.2188 17.9766C82.5677 17.9766 81.9427 18.237 81.3438 18.7578C80.7708 19.2786 80.25 19.9557 79.7812 20.7891C79.3385 21.5964 78.987 22.4948 78.7266 23.4844C78.4661 24.4479 78.3359 25.3724 78.3359 26.2578C78.3359 27.3516 78.4922 28.237 78.8047 28.9141C79.1172 29.5651 79.7682 29.8906 80.7578 29.8906ZM78.9609 48.0156C79.4818 48.0156 79.8984 47.625 80.2109 46.8438C80.5495 46.0885 80.901 45.0469 81.2656 43.7188C81.3438 43.4062 81.4479 42.9505 81.5781 42.3516C81.7344 41.7786 81.9036 41.1146 82.0859 40.3594C82.2943 39.6042 82.5026 38.7839 82.7109 37.8984C82.9193 37.0391 83.1406 36.1667 83.375 35.2812C83.1667 35.4635 82.9453 35.6458 82.7109 35.8281C82.5026 36.0365 82.2812 36.2708 82.0469 36.5312C81.474 37.0781 80.9141 37.599 80.3672 38.0938C79.8464 38.6146 79.3776 39.1484 78.9609 39.6953C78.5443 40.2682 78.2057 40.8802 77.9453 41.5312C77.7109 42.1823 77.5938 42.9375 77.5938 43.7969C77.5938 44.6562 77.6198 45.3594 77.6719 45.9062C77.75 46.4531 77.8411 46.8828 77.9453 47.1953C78.0755 47.5078 78.2188 47.7161 78.375 47.8203C78.5573 47.9505 78.7526 48.0156 78.9609 48.0156ZM111.461 23.875C110.68 25.0208 109.794 26.1406 108.805 27.2344C107.815 28.3021 106.76 29.2656 105.641 30.125C104.547 30.9583 103.414 31.6354 102.242 32.1562C101.096 32.6771 99.9766 32.9375 98.8828 32.9375C98.3099 32.9375 97.6849 32.7943 97.0078 32.5078C96.3568 32.2474 95.7578 31.8307 95.2109 31.2578C94.6641 30.6849 94.2214 29.9427 93.8828 29.0312C93.5703 28.1198 93.4792 27.013 93.6094 25.7109C93.7135 24.6432 94.0391 23.5234 94.5859 22.3516C95.1589 21.1536 95.849 20.0599 96.6562 19.0703C97.4896 18.0807 98.4141 17.2604 99.4297 16.6094C100.471 15.9583 101.513 15.6328 102.555 15.6328C103.544 15.6328 104.26 15.8802 104.703 16.375C105.146 16.8698 105.341 17.4818 105.289 18.2109C105.211 19.0182 104.977 19.7604 104.586 20.4375C104.221 21.1146 103.779 21.7266 103.258 22.2734C102.737 22.8203 102.177 23.3151 101.578 23.7578C101.005 24.2005 100.458 24.6042 99.9375 24.9688C99.3646 25.3594 98.8177 25.737 98.2969 26.1016C97.776 26.4401 97.3203 26.7526 96.9297 27.0391C96.9557 27.6901 97.0729 28.237 97.2812 28.6797C97.4896 29.1224 97.75 29.487 98.0625 29.7734C98.375 30.0339 98.7266 30.2292 99.1172 30.3594C99.5339 30.4635 99.9505 30.5156 100.367 30.5156C101.253 30.5156 102.177 30.2422 103.141 29.6953C104.104 29.1224 105.042 28.4453 105.953 27.6641C106.891 26.8568 107.75 26.0234 108.531 25.1641C109.339 24.3047 110.003 23.5625 110.523 22.9375C110.706 22.7292 110.888 22.612 111.07 22.5859C111.279 22.5339 111.435 22.5599 111.539 22.6641C111.669 22.7422 111.734 22.8984 111.734 23.1328C111.734 23.3411 111.643 23.5885 111.461 23.875ZM101.461 17.8594C101.148 17.8594 100.771 18.0156 100.328 18.3281C99.9115 18.6406 99.4948 19.0964 99.0781 19.6953C98.6615 20.2682 98.2708 20.9844 97.9062 21.8438C97.5417 22.6771 97.2682 23.6406 97.0859 24.7344C97.3984 24.5 97.737 24.2656 98.1016 24.0312C98.4661 23.7708 98.8307 23.4974 99.1953 23.2109C100.315 22.3516 101.096 21.5964 101.539 20.9453C101.982 20.2943 102.229 19.7344 102.281 19.2656C102.333 18.7708 102.281 18.4193 102.125 18.2109C101.969 17.9766 101.747 17.8594 101.461 17.8594ZM122.672 25.4766C123.219 24.7995 123.857 24.0182 124.586 23.1328C125.315 22.2214 126.083 21.2708 126.891 20.2812C127.724 19.2656 128.557 18.224 129.391 17.1562C130.25 16.0625 131.057 15.0078 131.812 13.9922C132.568 12.9766 133.245 12.013 133.844 11.1016C134.443 10.1901 134.924 9.38281 135.289 8.67969C135.445 8.34115 135.576 8.01562 135.68 7.70312C135.784 7.41667 135.862 7.13021 135.914 6.84375C135.992 6.53125 136.005 6.23177 135.953 5.94531C135.198 5.94531 134.299 5.97135 133.258 6.02344C132.216 6.04948 131.109 6.1276 129.938 6.25781C128.792 6.38802 127.633 6.58333 126.461 6.84375C125.315 7.10417 124.26 7.46875 123.297 7.9375C123.167 7.83333 123.076 7.66406 123.023 7.42969C122.997 7.19531 123.01 6.9349 123.062 6.64844C123.089 6.36198 123.154 6.02344 123.258 5.63281C123.362 5.29427 123.479 4.98177 123.609 4.69531C123.74 4.46094 123.87 4.22656 124 3.99219C124.156 3.75781 124.339 3.58854 124.547 3.48438C125.536 3.35417 126.461 3.25 127.32 3.17188C128.18 3.09375 128.948 3.02865 129.625 2.97656C130.406 2.92448 131.122 2.89844 131.773 2.89844C132.685 2.92448 133.57 2.95052 134.43 2.97656C135.185 3.02865 135.979 3.08073 136.812 3.13281C137.672 3.15885 138.466 3.23698 139.195 3.36719C139.326 3.73177 139.417 4.10938 139.469 4.5C139.547 4.89062 139.599 5.24219 139.625 5.55469C139.651 5.91927 139.664 6.28385 139.664 6.64844C139.612 7.5599 139.208 8.74479 138.453 10.2031C137.698 11.6615 136.734 13.1719 135.562 14.7344C135.172 15.2292 134.677 15.8542 134.078 16.6094C133.479 17.3385 132.802 18.1589 132.047 19.0703C131.318 19.9557 130.536 20.9062 129.703 21.9219C128.896 22.9115 128.076 23.9141 127.242 24.9297C126.435 25.9193 125.641 26.9089 124.859 27.8984C124.104 28.862 123.427 29.7604 122.828 30.5938C122.151 31.5052 121.578 32.3906 121.109 33.25C120.667 34.1354 120.315 34.9036 120.055 35.5547C120.732 35.2943 121.773 34.9948 123.18 34.6562C124.586 34.3438 126.253 34.1875 128.18 34.1875C129.195 34.1875 130.146 34.2266 131.031 34.3047C131.786 34.3568 132.529 34.4479 133.258 34.5781C134.013 34.7344 134.573 34.9297 134.938 35.1641C134.885 35.4245 134.755 35.737 134.547 36.1016C134.365 36.4141 134.078 36.7917 133.688 37.2344C133.297 37.7031 132.763 38.237 132.086 38.8359C131.07 38.6276 130.12 38.4583 129.234 38.3281C128.349 38.224 127.568 38.1458 126.891 38.0938C126.109 38.0156 125.393 37.9766 124.742 37.9766C124.091 37.9766 123.388 38.0286 122.633 38.1328C121.982 38.2109 121.24 38.3151 120.406 38.4453C119.599 38.6016 118.74 38.8229 117.828 39.1094C117.568 38.9531 117.372 38.6797 117.242 38.2891C117.086 37.8984 116.969 37.5078 116.891 37.1172C116.786 36.6484 116.708 36.1406 116.656 35.5938C117.333 34.0573 118.036 32.6771 118.766 31.4531C119.469 30.2031 120.12 29.1354 120.719 28.25C121.396 27.2083 122.047 26.2839 122.672 25.4766ZM149.625 25.7891C149.365 26.7786 149.013 27.7031 148.57 28.5625C148.128 29.4219 147.594 30.1641 146.969 30.7891C146.37 31.4141 145.68 31.8958 144.898 32.2344C144.143 32.599 143.31 32.7812 142.398 32.7812C141.331 32.7812 140.484 32.5469 139.859 32.0781C139.26 31.6354 138.805 31.0755 138.492 30.3984C138.206 29.7214 138.036 28.9792 137.984 28.1719C137.906 27.3646 137.867 26.6094 137.867 25.9062C137.867 25.4115 137.932 24.8646 138.062 24.2656C138.167 23.6667 138.323 23.0547 138.531 22.4297C138.74 21.8047 139 21.1797 139.312 20.5547C139.651 19.9297 140.042 19.3568 140.484 18.8359C140.641 18.3932 140.875 18.0026 141.188 17.6641C141.526 17.3255 141.904 17.0521 142.32 16.8438C142.763 16.6094 143.232 16.4401 143.727 16.3359C144.221 16.2057 144.703 16.1406 145.172 16.1406C145.25 16.1406 145.315 16.1536 145.367 16.1797C145.445 16.2057 145.523 16.2318 145.602 16.2578C145.94 16.2839 146.357 16.4141 146.852 16.6484C147.372 16.8828 147.867 17.2344 148.336 17.7031C148.831 18.1719 149.247 18.7708 149.586 19.5C149.924 20.2031 150.094 21.0625 150.094 22.0781C150.094 22.2865 150.081 22.5469 150.055 22.8594C150.029 23.1458 150.003 23.3932 149.977 23.6016C150.576 23.3672 151.201 23.0807 151.852 22.7422C152.503 22.4036 153.128 22.0521 153.727 21.6875C154.352 21.2969 154.924 20.9062 155.445 20.5156C155.966 20.125 156.383 19.7734 156.695 19.4609C156.956 19.2266 157.177 19.0964 157.359 19.0703C157.542 19.0443 157.672 19.0964 157.75 19.2266C157.828 19.3568 157.841 19.5391 157.789 19.7734C157.737 20.0078 157.594 20.2682 157.359 20.5547C157.229 20.7109 156.891 21.0234 156.344 21.4922C155.823 21.9609 155.198 22.4688 154.469 23.0156C153.74 23.5625 152.945 24.0964 152.086 24.6172C151.227 25.138 150.406 25.5286 149.625 25.7891ZM143.023 19.8516C142.945 20.0859 142.906 20.3333 142.906 20.5938C142.906 21.0104 142.932 21.4531 142.984 21.9219C143.036 22.3646 143.167 22.7682 143.375 23.1328C143.583 23.4974 143.909 23.8099 144.352 24.0703C144.82 24.3047 145.458 24.4219 146.266 24.4219C146.396 24.4219 146.526 24.4219 146.656 24.4219C146.786 24.3958 146.917 24.3698 147.047 24.3438C147.125 24.0052 147.19 23.7057 147.242 23.4453C147.32 23.1589 147.359 22.9115 147.359 22.7031C147.411 22.2083 147.411 21.7005 147.359 21.1797C147.307 20.6589 147.203 20.1901 147.047 19.7734C146.917 19.3307 146.734 18.9792 146.5 18.7188C146.292 18.4323 146.031 18.2891 145.719 18.2891C145.224 18.2891 144.742 18.4323 144.273 18.7188C143.831 18.9792 143.414 19.3568 143.023 19.8516ZM140.523 26.7266C140.523 27.1953 140.549 27.6641 140.602 28.1328C140.654 28.5755 140.758 28.9792 140.914 29.3438C141.07 29.6823 141.279 29.9688 141.539 30.2031C141.799 30.4115 142.138 30.5156 142.555 30.5156C143.023 30.5156 143.453 30.4115 143.844 30.2031C144.234 29.9688 144.586 29.6823 144.898 29.3438C145.211 28.9792 145.484 28.5755 145.719 28.1328C145.979 27.6641 146.201 27.1823 146.383 26.6875C146.201 26.7135 146.018 26.7396 145.836 26.7656C145.68 26.7656 145.497 26.7656 145.289 26.7656C144.299 26.7656 143.44 26.4792 142.711 25.9062C142.008 25.3073 141.461 24.5521 141.07 23.6406C140.914 24.1875 140.784 24.7214 140.68 25.2422C140.576 25.763 140.523 26.2578 140.523 26.7266ZM152.32 31.8047C152.138 32.0911 151.943 32.2734 151.734 32.3516C151.5 32.4557 151.305 32.4688 151.148 32.3906C150.966 32.3385 150.849 32.2083 150.797 32C150.745 31.7917 150.797 31.5312 150.953 31.2188C151.031 31.0625 151.214 30.7109 151.5 30.1641C151.76 29.6172 152.086 28.9661 152.477 28.2109C152.841 27.4297 153.245 26.5964 153.688 25.7109C154.13 24.7995 154.547 23.9401 154.938 23.1328C155.354 22.3255 155.732 21.6094 156.07 20.9844C156.409 20.3333 156.656 19.8646 156.812 19.5781C156.526 19.3177 156.331 19.1354 156.227 19.0312C156.122 18.901 156.044 18.6406 155.992 18.25C155.94 17.9115 156.018 17.4688 156.227 16.9219C156.435 16.375 156.708 15.8542 157.047 15.3594C157.385 14.8385 157.763 14.3958 158.18 14.0312C158.596 13.6667 159 13.4844 159.391 13.4844C160.12 13.4844 160.628 13.7188 160.914 14.1875C161.227 14.6562 161.409 15.138 161.461 15.6328C161.513 15.9714 161.487 16.401 161.383 16.9219C161.279 17.4427 161.083 17.9115 160.797 18.3281C160.875 18.3802 160.979 18.4453 161.109 18.5234C161.24 18.5755 161.448 18.6016 161.734 18.6016C162.151 18.6016 162.438 18.5755 162.594 18.5234C162.776 18.4714 163.049 18.4453 163.414 18.4453C163.857 18.4453 164.221 18.5625 164.508 18.7969C164.794 19.0052 165.029 19.2786 165.211 19.6172C165.393 19.9297 165.523 20.2812 165.602 20.6719C165.706 21.0365 165.771 21.375 165.797 21.6875C165.875 22.3385 165.706 23.0156 165.289 23.7188C164.872 24.4219 164.365 25.1901 163.766 26.0234C163.401 26.5443 163.036 27.1302 162.672 27.7812C162.307 28.4323 162.151 29.0182 162.203 29.5391C162.255 29.8776 162.346 30.151 162.477 30.3594C162.607 30.5677 162.971 30.6719 163.57 30.6719C164.013 30.6719 164.495 30.5156 165.016 30.2031C165.562 29.8646 166.109 29.4479 166.656 28.9531C167.229 28.4323 167.789 27.8724 168.336 27.2734C168.883 26.6484 169.391 26.0495 169.859 25.4766C170.328 24.8776 170.719 24.3438 171.031 23.875C171.37 23.4062 171.617 23.0677 171.773 22.8594C171.904 22.651 172.073 22.5078 172.281 22.4297C172.49 22.3516 172.672 22.3516 172.828 22.4297C172.984 22.5078 173.076 22.6641 173.102 22.8984C173.154 23.1328 173.062 23.4453 172.828 23.8359C172.672 24.0964 172.398 24.513 172.008 25.0859C171.643 25.6589 171.188 26.2969 170.641 27C170.12 27.7031 169.534 28.4323 168.883 29.1875C168.232 29.9167 167.542 30.5938 166.812 31.2188C166.109 31.8177 165.393 32.3125 164.664 32.7031C163.961 33.0938 163.284 33.2891 162.633 33.2891C161.956 33.2891 161.396 33.1589 160.953 32.8984C160.51 32.638 160.146 32.3255 159.859 31.9609C159.599 31.5703 159.404 31.1536 159.273 30.7109C159.169 30.2422 159.13 29.8125 159.156 29.4219C159.182 29.1094 159.26 28.7839 159.391 28.4453C159.547 28.0807 159.716 27.7161 159.898 27.3516C160.107 26.9609 160.315 26.5833 160.523 26.2188C160.758 25.8281 160.966 25.4505 161.148 25.0859C161.591 24.3307 161.943 23.6927 162.203 23.1719C162.49 22.625 162.633 22.1693 162.633 21.8047C162.633 21.5703 162.581 21.362 162.477 21.1797C162.372 20.9974 162.203 20.9062 161.969 20.9062C161.812 20.9062 161.695 20.9193 161.617 20.9453C161.565 20.9453 161.5 20.9453 161.422 20.9453C161.37 20.9453 161.279 20.9583 161.148 20.9844C161.044 20.9844 160.875 20.9844 160.641 20.9844C160.302 20.9844 160.016 20.9323 159.781 20.8281C159.547 20.724 159.326 20.6458 159.117 20.5938C159.013 20.776 158.779 21.1667 158.414 21.7656C158.049 22.3646 157.62 23.0677 157.125 23.875C156.656 24.6823 156.148 25.5286 155.602 26.4141C155.081 27.2995 154.586 28.1328 154.117 28.9141C153.648 29.6693 153.258 30.3203 152.945 30.8672C152.607 31.388 152.398 31.7005 152.32 31.8047ZM190.094 24.2266C189.729 24.7474 189.26 25.3984 188.688 26.1797C188.115 26.9349 187.516 27.7031 186.891 28.4844C186.292 29.2396 185.693 29.9427 185.094 30.5938C184.521 31.2188 184.039 31.6615 183.648 31.9219C183.388 32.0781 183.089 32.2083 182.75 32.3125C182.411 32.4167 182.06 32.4818 181.695 32.5078C181.357 32.5339 181.031 32.5078 180.719 32.4297C180.406 32.3776 180.133 32.2734 179.898 32.1172C179.664 31.9349 179.469 31.6745 179.312 31.3359C179.182 31.0495 179.052 30.6719 178.922 30.2031C178.818 29.7344 178.779 29.1484 178.805 28.4453C178.18 29.487 177.49 30.2943 176.734 30.8672C175.979 31.4141 175.263 31.8177 174.586 32.0781C173.805 32.3646 173.023 32.5339 172.242 32.5859C171.878 32.5859 171.487 32.4557 171.07 32.1953C170.654 31.9609 170.302 31.5833 170.016 31.0625C169.729 30.5156 169.547 29.8255 169.469 28.9922C169.391 28.1328 169.495 27.1172 169.781 25.9453C170.146 24.3568 170.719 22.9115 171.5 21.6094C172.307 20.3073 173.18 19.2005 174.117 18.2891C175.055 17.3516 175.979 16.6484 176.891 16.1797C177.802 15.7109 178.557 15.5026 179.156 15.5547C179.859 15.6849 180.432 15.8932 180.875 16.1797C181.24 16.4401 181.474 16.8307 181.578 17.3516C181.708 17.8464 181.5 18.5104 180.953 19.3438C181.318 19.2656 181.617 19.2135 181.852 19.1875C182.112 19.1615 182.307 19.1484 182.438 19.1484C182.594 19.1484 182.698 19.1615 182.75 19.1875C182.776 19.2396 182.789 19.3568 182.789 19.5391C182.789 19.6953 182.75 19.9948 182.672 20.4375C182.594 20.8802 182.477 21.4792 182.32 22.2344C182.164 22.9896 181.956 23.9661 181.695 25.1641C181.643 25.3984 181.591 25.6198 181.539 25.8281C181.513 26.0104 181.474 26.2057 181.422 26.4141C181.396 26.5964 181.357 26.8177 181.305 27.0781C181.253 27.3385 181.188 27.6641 181.109 28.0547C181.083 28.2891 181.07 28.5495 181.07 28.8359C181.096 29.0964 181.148 29.3438 181.227 29.5781C181.305 29.8125 181.422 30.0078 181.578 30.1641C181.76 30.2943 182.008 30.3594 182.32 30.3594C182.581 30.3594 182.919 30.2031 183.336 29.8906C183.753 29.5521 184.195 29.1354 184.664 28.6406C185.133 28.1198 185.615 27.5599 186.109 26.9609C186.63 26.3359 187.112 25.737 187.555 25.1641C187.997 24.5911 188.388 24.0833 188.727 23.6406C189.091 23.1979 189.352 22.8724 189.508 22.6641C189.716 22.4297 189.924 22.2995 190.133 22.2734C190.341 22.2214 190.497 22.2734 190.602 22.4297C190.706 22.5859 190.719 22.8203 190.641 23.1328C190.589 23.4453 190.406 23.8099 190.094 24.2266ZM178.648 25.9453C178.779 25.4245 178.935 24.8125 179.117 24.1094C179.299 23.4062 179.456 22.7292 179.586 22.0781C179.716 21.4271 179.807 20.8932 179.859 20.4766C179.938 20.0339 179.924 19.8255 179.82 19.8516C179.69 19.8776 179.547 19.9167 179.391 19.9688C179.26 20.0208 179.091 20.0599 178.883 20.0859C178.674 20.112 178.466 20.151 178.258 20.2031C178.466 19.7865 178.583 19.4479 178.609 19.1875C178.661 18.901 178.674 18.6797 178.648 18.5234C178.622 18.3411 178.57 18.1979 178.492 18.0938C178.206 17.8594 177.698 18.0547 176.969 18.6797C176.266 19.2786 175.445 20.3984 174.508 22.0391C174.117 22.7161 173.805 23.4453 173.57 24.2266C173.336 24.9818 173.167 25.6979 173.062 26.375C172.984 27.0521 172.971 27.651 173.023 28.1719C173.076 28.6667 173.18 28.9922 173.336 29.1484C173.622 29.4349 173.948 29.5781 174.312 29.5781C174.677 29.5521 175.042 29.4479 175.406 29.2656C175.797 29.0573 176.174 28.7969 176.539 28.4844C176.93 28.1719 177.268 27.8464 177.555 27.5078C177.867 27.1693 178.115 26.8568 178.297 26.5703C178.505 26.2839 178.622 26.0755 178.648 25.9453ZM207.516 24.2266C206.917 25.2161 206.227 26.2448 205.445 27.3125C204.69 28.3542 203.883 29.3177 203.023 30.2031C202.164 31.0625 201.279 31.7786 200.367 32.3516C199.456 32.9245 198.544 33.2109 197.633 33.2109C196.721 33.2109 196.057 32.8984 195.641 32.2734C195.25 31.6745 195.068 30.9974 195.094 30.2422C195.094 29.9036 195.12 29.6042 195.172 29.3438C195.25 29.0833 195.328 28.849 195.406 28.6406C195.484 28.4323 195.562 28.224 195.641 28.0156C195.745 27.7812 195.836 27.5208 195.914 27.2344C196.018 26.8958 196.018 26.5964 195.914 26.3359C195.836 26.0495 195.732 25.8021 195.602 25.5938C195.367 25.8542 195.094 26.0885 194.781 26.2969C194.495 26.4792 194.13 26.5703 193.688 26.5703C193.375 26.5703 193.089 26.4271 192.828 26.1406C192.568 25.8281 192.438 25.4505 192.438 25.0078C192.438 24.6432 192.516 24.3438 192.672 24.1094C192.854 23.875 193.049 23.6927 193.258 23.5625C193.492 23.4323 193.727 23.3411 193.961 23.2891C194.195 23.237 194.391 23.2109 194.547 23.2109C194.625 23.2109 194.781 23.224 195.016 23.25C195.276 23.276 195.549 23.3151 195.836 23.3672C196.773 22.612 197.438 21.9349 197.828 21.3359C198.245 20.7109 198.284 20.151 197.945 19.6562C197.737 19.3177 197.477 19.1484 197.164 19.1484C196.852 19.1224 196.526 19.2005 196.188 19.3828C195.849 19.5391 195.51 19.7474 195.172 20.0078C194.859 20.2682 194.573 20.5156 194.312 20.75C193.792 21.2708 193.206 21.8958 192.555 22.625C191.93 23.3281 191.409 23.9141 190.992 24.3828C190.81 25.1641 190.628 25.9844 190.445 26.8438C190.289 27.599 190.107 28.4583 189.898 29.4219C189.716 30.3594 189.521 31.3359 189.312 32.3516C189.156 32.4297 188.987 32.4818 188.805 32.5078C188.648 32.5599 188.505 32.599 188.375 32.625C188.219 32.651 188.062 32.6641 187.906 32.6641C187.698 32.6641 187.503 32.651 187.32 32.625C187.138 32.625 186.995 32.5599 186.891 32.4297C186.76 32.3255 186.695 32.1432 186.695 31.8828C186.669 31.6224 186.734 31.2578 186.891 30.7891C187.099 30.112 187.359 29.2135 187.672 28.0938C187.984 26.9479 188.31 25.6979 188.648 24.3438C188.987 22.9896 189.326 21.5833 189.664 20.125C190.029 18.6406 190.367 17.2344 190.68 15.9062C190.992 14.5521 191.253 13.3411 191.461 12.2734C191.695 11.1797 191.865 10.3203 191.969 9.69531C192.047 9.01823 192.125 8.36719 192.203 7.74219C192.255 7.22135 192.281 6.71354 192.281 6.21875C192.307 5.69792 192.281 5.30729 192.203 5.04688C192.333 4.91667 192.516 4.79948 192.75 4.69531C192.984 4.59115 193.245 4.51302 193.531 4.46094C193.818 4.38281 194.156 4.31771 194.547 4.26562C194.99 4.21354 195.354 4.20052 195.641 4.22656C195.953 4.2526 196.174 4.38281 196.305 4.61719C196.461 4.8776 196.487 5.32031 196.383 5.94531C196.305 6.54427 196.122 7.39062 195.836 8.48438C195.471 9.89062 195.094 11.1797 194.703 12.3516C194.339 13.4974 193.974 14.5781 193.609 15.5938C193.271 16.6094 192.932 17.599 192.594 18.5625C192.281 19.5 191.995 20.4635 191.734 21.4531C192.255 20.6979 192.906 19.9036 193.688 19.0703C194.469 18.2109 195.354 17.5078 196.344 16.9609C197.385 16.4141 198.245 16.1406 198.922 16.1406C199.755 16.1406 200.354 16.4271 200.719 17C201.083 17.5469 201.253 18.1979 201.227 18.9531C201.201 19.5521 201.044 20.112 200.758 20.6328C200.497 21.1276 200.172 21.5964 199.781 22.0391C199.391 22.4557 198.974 22.8203 198.531 23.1328C198.089 23.4453 197.711 23.7057 197.398 23.9141C197.763 24.1224 198.076 24.4089 198.336 24.7734C198.622 25.112 198.753 25.5417 198.727 26.0625C198.701 26.7656 198.557 27.3906 198.297 27.9375C198.062 28.4583 197.945 28.9401 197.945 29.3828C197.971 29.7214 198.036 29.9688 198.141 30.125C198.271 30.2812 198.531 30.3594 198.922 30.3594C199.625 30.3594 200.354 30.0599 201.109 29.4609C201.891 28.862 202.62 28.1719 203.297 27.3906C203.974 26.6094 204.599 25.8411 205.172 25.0859C205.745 24.3047 206.188 23.7318 206.5 23.3672C206.943 22.8984 207.307 22.7812 207.594 23.0156C207.906 23.224 207.88 23.6276 207.516 24.2266ZM213.688 8.99219C213.609 9.27865 213.453 9.5651 213.219 9.85156C213.01 10.112 212.763 10.3333 212.477 10.5156C212.216 10.6719 211.943 10.776 211.656 10.8281C211.37 10.8802 211.135 10.8281 210.953 10.6719C210.406 10.2552 210.12 9.8125 210.094 9.34375C210.068 8.84896 210.185 8.39323 210.445 7.97656C210.706 7.53385 211.031 7.16927 211.422 6.88281C211.812 6.57031 212.151 6.38802 212.438 6.33594C212.724 6.28385 212.958 6.34896 213.141 6.53125C213.349 6.6875 213.505 6.90885 213.609 7.19531C213.714 7.45573 213.766 7.75521 213.766 8.09375C213.792 8.43229 213.766 8.73177 213.688 8.99219ZM208.297 17.3125C208.427 17.1562 208.674 17.026 209.039 16.9219C209.404 16.8177 209.781 16.7396 210.172 16.6875C210.562 16.6094 210.914 16.5703 211.227 16.5703C211.565 16.5443 211.76 16.5443 211.812 16.5703C211.839 16.5964 211.773 16.8698 211.617 17.3906C211.461 17.9115 211.266 18.5234 211.031 19.2266C210.797 19.9297 210.549 20.6589 210.289 21.4141C210.029 22.1432 209.833 22.7422 209.703 23.2109C209.573 23.6797 209.417 24.2135 209.234 24.8125C209.052 25.3854 208.883 25.9583 208.727 26.5312C208.596 27.0781 208.505 27.599 208.453 28.0938C208.401 28.5885 208.44 28.9661 208.57 29.2266C208.701 29.5391 208.844 29.7604 209 29.8906C209.156 29.9948 209.326 30.0469 209.508 30.0469C210.029 30.0469 210.68 29.7604 211.461 29.1875C212.268 28.6146 213.076 27.9375 213.883 27.1562C214.716 26.349 215.484 25.5417 216.188 24.7344C216.891 23.901 217.411 23.237 217.75 22.7422C217.958 22.4818 218.167 22.3125 218.375 22.2344C218.609 22.1562 218.792 22.1693 218.922 22.2734C219.078 22.3776 219.156 22.5469 219.156 22.7812C219.182 23.0156 219.104 23.2891 218.922 23.6016C218.505 24.3307 217.893 25.2031 217.086 26.2188C216.279 27.2083 215.419 28.1719 214.508 29.1094C213.596 30.0208 212.698 30.8021 211.812 31.4531C210.953 32.1042 210.25 32.4427 209.703 32.4688C209.26 32.4948 208.818 32.4167 208.375 32.2344C207.958 32.0781 207.568 31.8568 207.203 31.5703C206.865 31.2578 206.578 30.9062 206.344 30.5156C206.109 30.099 205.979 29.6693 205.953 29.2266C205.875 28.5755 205.875 27.6901 205.953 26.5703C206.031 25.4245 206.174 24.2656 206.383 23.0938C206.591 21.8958 206.852 20.763 207.164 19.6953C207.503 18.6276 207.88 17.8333 208.297 17.3125ZM221.578 30.6719C221.734 30.776 221.93 30.8281 222.164 30.8281C222.424 30.8281 222.672 30.776 222.906 30.6719C223.167 30.5677 223.401 30.4245 223.609 30.2422C223.844 30.0599 224.013 29.8255 224.117 29.5391C224.221 29.2526 224.221 28.849 224.117 28.3281C224.013 27.7812 223.844 27.2083 223.609 26.6094C223.401 25.9844 223.167 25.3594 222.906 24.7344C222.646 24.1094 222.424 23.5365 222.242 23.0156C222.086 22.625 221.956 22.2604 221.852 21.9219C221.747 21.6354 221.643 21.362 221.539 21.1016C221.461 20.8151 221.396 20.6198 221.344 20.5156C221.214 20.724 220.979 21.0625 220.641 21.5312C220.328 22 219.977 22.4948 219.586 23.0156C219.221 23.5104 218.87 23.9792 218.531 24.4219C218.193 24.8385 217.958 25.125 217.828 25.2812C217.62 25.5156 217.411 25.6589 217.203 25.7109C217.021 25.737 216.865 25.6979 216.734 25.5938C216.604 25.4635 216.526 25.2943 216.5 25.0859C216.5 24.8516 216.604 24.5781 216.812 24.2656C216.969 24.0573 217.203 23.7318 217.516 23.2891C217.828 22.8203 218.141 22.3516 218.453 21.8828C218.766 21.388 219.052 20.9583 219.312 20.5938C219.573 20.2031 219.716 19.9688 219.742 19.8906C219.794 19.6823 219.716 19.4089 219.508 19.0703C219.326 18.7318 219.299 18.3411 219.43 17.8984C219.534 17.5339 219.768 17.1172 220.133 16.6484C220.497 16.1536 220.927 15.7109 221.422 15.3203C221.917 14.9297 222.424 14.6432 222.945 14.4609C223.466 14.2526 223.935 14.2526 224.352 14.4609C224.69 14.6693 224.964 14.9036 225.172 15.1641C225.38 15.3984 225.458 15.6458 225.406 15.9062C225.354 16.0365 225.276 16.2057 225.172 16.4141C225.068 16.6224 224.911 16.8828 224.703 17.1953C224.495 17.4818 224.195 17.8594 223.805 18.3281C223.883 18.9271 223.987 19.474 224.117 19.9688C224.273 20.4635 224.417 20.8932 224.547 21.2578C224.703 21.7005 224.872 22.1042 225.055 22.4688C225.289 22.9375 225.536 23.4193 225.797 23.9141C226.057 24.4089 226.292 24.9036 226.5 25.3984C226.708 25.8672 226.878 26.3099 227.008 26.7266C227.138 27.1432 227.177 27.4948 227.125 27.7812C227.047 28.224 226.812 28.7578 226.422 29.3828C226.057 30.0078 225.589 30.6198 225.016 31.2188C224.469 31.7917 223.831 32.2865 223.102 32.7031C222.398 33.1198 221.656 33.3281 220.875 33.3281C220.328 33.3281 219.794 33.1589 219.273 32.8203C218.779 32.4818 218.349 32.0911 217.984 31.6484C217.646 31.1797 217.385 30.724 217.203 30.2812C217.047 29.8385 217.034 29.5 217.164 29.2656C217.32 28.9531 217.464 28.7057 217.594 28.5234C217.724 28.3411 217.919 28.1328 218.18 27.8984C218.284 27.8203 218.414 27.7292 218.57 27.625C218.701 27.5469 218.883 27.4688 219.117 27.3906C219.352 27.3125 219.625 27.2214 219.938 27.1172C220.198 27.9245 220.432 28.5625 220.641 29.0312C220.849 29.474 221.018 29.8255 221.148 30.0859C221.305 30.3724 221.448 30.5677 221.578 30.6719Z" fill="black"/>
<path d="M35.34 66L33.435 56.415H34.9725L36.18 63.0675L36.495 64.74H36.615L36.915 63.0675L38.1075 56.655H40.2975L41.4825 63.0675L41.7825 64.74H41.91L42.225 63.0675L43.4325 56.415H44.9625L43.065 66H40.725L39.765 60.7725L39.2625 57.9H39.1425L38.64 60.7725L37.6875 66H35.34ZM52.4576 66V56.415H53.9426V66H52.4576ZM52.9001 66V64.74H58.6076V66H52.9001ZM53.3126 61.74V60.495H58.4426V61.74H53.3126ZM52.8926 57.6675V56.415H58.5551V57.6675H52.8926ZM67.4102 66V64.7625H70.2827C70.8927 64.7625 71.3252 64.6375 71.5802 64.3875C71.8352 64.1375 71.9627 63.7875 71.9627 63.3375V63.105C71.9627 62.645 71.8327 62.2925 71.5727 62.0475C71.3127 61.7975 70.8627 61.6725 70.2227 61.6725H67.4027V60.4875H70.2077C70.7827 60.4875 71.1902 60.3675 71.4302 60.1275C71.6752 59.8825 71.7977 59.5425 71.7977 59.1075V58.9875C71.7977 58.5625 71.6802 58.2325 71.4452 57.9975C71.2102 57.7625 70.7952 57.645 70.2002 57.645H67.3802V56.415H70.3427C71.3977 56.415 72.1552 56.6175 72.6152 57.0225C73.0752 57.4225 73.3052 57.9975 73.3052 58.7475V58.8825C73.3052 59.4575 73.1727 59.905 72.9077 60.225C72.6427 60.54 72.2327 60.735 71.6777 60.81V60.885C72.3127 61.01 72.7727 61.2525 73.0577 61.6125C73.3477 61.9725 73.4927 62.48 73.4927 63.135V63.42C73.4927 64.24 73.2527 64.875 72.7727 65.325C72.2927 65.775 71.5152 66 70.4402 66H67.4102ZM66.3677 66V56.415H67.8527V66H66.3677ZM91.3191 66V64.7325H93.5916C94.3816 64.7325 94.9741 64.5175 95.3691 64.0875C95.7691 63.6575 95.9691 63.0425 95.9691 62.2425V60.1575C95.9691 59.3525 95.7691 58.7375 95.3691 58.3125C94.9741 57.8825 94.3816 57.6675 93.5916 57.6675H91.3116V56.415H93.6441C94.9141 56.415 95.8716 56.7375 96.5166 57.3825C97.1616 58.0225 97.4841 58.945 97.4841 60.15V62.25C97.4841 63.455 97.1616 64.3825 96.5166 65.0325C95.8716 65.6775 94.9141 66 93.6441 66H91.3191ZM90.2916 66V56.415H91.7766V66H90.2916ZM105.256 66V56.415H106.741V66H105.256ZM105.699 66V64.74H111.406V66H105.699ZM106.111 61.74V60.495H111.241V61.74H106.111ZM105.691 57.6675V56.415H111.354V57.6675H105.691ZM121.237 66L118.387 56.415H119.962L122.325 64.8675H122.497L124.86 56.415H126.435L123.592 66H121.237ZM133.809 66V56.415H135.294V66H133.809ZM134.252 66V64.74H139.959V66H134.252ZM134.664 61.74V60.495H139.794V61.74H134.664ZM134.244 57.6675V56.415H139.907V57.6675H134.244ZM149.227 66H147.719V56.415H149.227V66ZM148.544 64.725H153.569V66H148.544V64.725ZM164.165 66.195C162.915 66.195 161.965 65.855 161.315 65.175C160.67 64.495 160.347 63.5225 160.347 62.2575V60.15C160.347 58.89 160.67 57.92 161.315 57.24C161.965 56.56 162.915 56.22 164.165 56.22C165.415 56.22 166.362 56.56 167.007 57.24C167.657 57.92 167.982 58.89 167.982 60.15V62.2575C167.982 63.5225 167.657 64.495 167.007 65.175C166.362 65.855 165.415 66.195 164.165 66.195ZM164.165 64.9425C164.925 64.9425 165.495 64.715 165.875 64.26C166.26 63.8 166.452 63.1525 166.452 62.3175V60.09C166.452 59.25 166.26 58.605 165.875 58.155C165.495 57.7 164.925 57.4725 164.165 57.4725C163.405 57.4725 162.832 57.7 162.447 58.155C162.067 58.605 161.877 59.25 161.877 60.09V62.3175C161.877 63.1525 162.067 63.8 162.447 64.26C162.832 64.715 163.405 64.9425 164.165 64.9425ZM176.779 62.925V61.68H179.426C180.026 61.68 180.461 61.5325 180.731 61.2375C181.006 60.9375 181.144 60.5225 181.144 59.9925V59.34C181.144 58.795 181.009 58.3775 180.739 58.0875C180.469 57.7975 180.036 57.6525 179.441 57.6525H176.771V56.415H179.471C180.571 56.415 181.374 56.67 181.879 57.18C182.389 57.685 182.644 58.3925 182.644 59.3025V60.03C182.644 60.94 182.389 61.65 181.879 62.16C181.369 62.67 180.564 62.925 179.464 62.925H176.779ZM175.789 66V56.415H177.266V62.0475L177.274 62.7225V66H175.789ZM190.299 66V56.415H191.784V66H190.299ZM190.742 66V64.74H196.449V66H190.742ZM191.154 61.74V60.495H196.284V61.74H191.154ZM190.734 57.6675V56.415H196.397V57.6675H190.734ZM209.737 66L209.482 64.0575C209.437 63.7025 209.357 63.4 209.242 63.15C209.132 62.895 208.96 62.6975 208.725 62.5575C208.49 62.4175 208.162 62.3475 207.742 62.3475L205.245 62.34V61.155L207.9 61.1475C208.515 61.1475 208.955 61 209.22 60.705C209.485 60.41 209.617 60 209.617 59.475V59.265C209.617 58.75 209.482 58.3525 209.212 58.0725C208.942 57.7925 208.495 57.6525 207.87 57.6525H205.215V56.415H208.08C209.145 56.415 209.92 56.6425 210.405 57.0975C210.895 57.5525 211.14 58.1875 211.14 59.0025V59.2425C211.14 59.8475 211 60.3425 210.72 60.7275C210.445 61.1125 209.982 61.355 209.332 61.455V61.65L208.702 61.4325C209.257 61.4725 209.685 61.5925 209.985 61.7925C210.29 61.9925 210.512 62.2675 210.652 62.6175C210.792 62.9675 210.9 63.3925 210.975 63.8925L211.297 66H209.737ZM204.21 66V56.415H205.687V61.5675L205.695 62.13V66H204.21Z" fill="black"/>
</g>
<defs>
<clipPath id="clip0_13_3">
<rect width="235" height="76" fill="white"/>
</clipPath>
</defs>
</svg>
