<svg width="227" height="69" viewBox="0 0 227 69" fill="none" xmlns="http://www.w3.org/2000/svg">
<path d="M8.55469 39.6172C7.27865 39.6172 6.13281 39.2786 5.11719 38.6016C4.10156 37.9505 3.24219 37.0521 2.53906 35.9062C1.83594 34.7604 1.3151 33.4323 0.976562 31.9219C0.664062 30.4115 0.546875 28.8099 0.625 27.1172C0.729167 25.3203 1.0026 23.4714 1.44531 21.5703C1.88802 19.6432 2.48698 17.7682 3.24219 15.9453C3.9974 14.1224 4.86979 12.3906 5.85938 10.75C6.875 9.10938 7.98177 7.67708 9.17969 6.45312C10.4036 5.22917 11.7057 4.26562 13.0859 3.5625C14.4661 2.83333 15.9115 2.46875 17.4219 2.46875C18.4115 2.46875 19.2448 2.71615 19.9219 3.21094C20.599 3.70573 21.1198 4.35677 21.4844 5.16406C21.875 5.94531 22.1224 6.83073 22.2266 7.82031C22.3307 8.8099 22.3177 9.79948 22.1875 10.7891C22.0833 11.7526 21.862 12.6901 21.5234 13.6016C21.2109 14.487 20.8203 15.2161 20.3516 15.7891C19.7526 16.5443 19.2057 16.9479 18.7109 17C18.2422 17.026 17.7865 16.8828 17.3438 16.5703C17.1615 16.4141 16.9792 16.2318 16.7969 16.0234C16.6146 15.8411 16.4193 15.6198 16.2109 15.3594C16.0026 15.0729 15.7812 14.7214 15.5469 14.3047C16.0417 14.1224 16.4974 13.8229 16.9141 13.4062C17.3307 12.9635 17.6823 12.4688 17.9688 11.9219C18.2812 11.375 18.5156 10.8021 18.6719 10.2031C18.8542 9.57812 18.9583 8.96615 18.9844 8.36719C19.0104 7.89844 18.9974 7.44271 18.9453 7C18.8932 6.53125 18.7891 6.1276 18.6328 5.78906C18.4766 5.42448 18.2552 5.13802 17.9688 4.92969C17.7083 4.69531 17.3698 4.57812 16.9531 4.57812C15.9115 4.57812 14.8958 4.98177 13.9062 5.78906C12.9167 6.57031 11.9792 7.625 11.0938 8.95312C10.2344 10.2552 9.42708 11.7526 8.67188 13.4453C7.94271 15.138 7.30469 16.8828 6.75781 18.6797C6.21094 20.4766 5.76823 22.2474 5.42969 23.9922C5.09115 25.737 4.88281 27.3255 4.80469 28.7578C4.70052 30.5547 4.76562 32.013 5 33.1328C5.23438 34.2526 5.54688 35.125 5.9375 35.75C6.35417 36.401 6.79688 36.8307 7.26562 37.0391C7.73438 37.2734 8.16406 37.3906 8.55469 37.3906C9.28385 37.3906 10.1042 37.0521 11.0156 36.375C11.9271 35.6979 12.7995 34.7734 13.6328 33.6016C14.4661 32.4557 15.2083 31.1276 15.8594 29.6172C16.5365 28.1068 17.0182 26.5182 17.3047 24.8516C16.6536 24.8516 15.9896 24.8646 15.3125 24.8906C14.6615 24.8906 14.0365 24.9036 13.4375 24.9297C12.8385 24.9557 12.3047 24.9948 11.8359 25.0469C11.3672 25.0729 11.0026 25.112 10.7422 25.1641C10.5599 25.0859 10.4297 24.9948 10.3516 24.8906C10.2995 24.7865 10.2474 24.6693 10.1953 24.5391C10.1432 24.4349 10.1172 24.3047 10.1172 24.1484C10.1172 23.9922 10.1432 23.849 10.1953 23.7188C10.2474 23.5885 10.3125 23.4583 10.3906 23.3281C10.4688 23.1719 10.5729 23.0156 10.7031 22.8594C11.5365 22.7031 12.3568 22.5729 13.1641 22.4688C13.9714 22.3646 14.8047 22.2865 15.6641 22.2344C16.5495 22.1562 17.487 22.1042 18.4766 22.0781C19.4922 22.026 20.625 21.987 21.875 21.9609C22.3958 21.9349 22.7083 22 22.8125 22.1562C22.9427 22.3125 22.9036 22.7031 22.6953 23.3281C22.5391 23.8229 22.3307 24.2266 22.0703 24.5391C21.8359 24.8516 21.4323 24.9818 20.8594 24.9297C20.6771 24.9297 20.5339 24.9167 20.4297 24.8906C20.1953 26.4271 19.7005 28.0547 18.9453 29.7734C18.1901 31.4922 17.2656 33.0807 16.1719 34.5391C15.0781 35.9974 13.8672 37.2083 12.5391 38.1719C11.237 39.1354 9.90885 39.6172 8.55469 39.6172ZM42.1875 23.875C41.4062 25.0208 40.5208 26.1406 39.5312 27.2344C38.5417 28.3021 37.487 29.2656 36.3672 30.125C35.2734 30.9583 34.1406 31.6354 32.9688 32.1562C31.8229 32.6771 30.7031 32.9375 29.6094 32.9375C29.0365 32.9375 28.4115 32.7943 27.7344 32.5078C27.0833 32.2474 26.4844 31.8307 25.9375 31.2578C25.3906 30.6849 24.9479 29.9427 24.6094 29.0312C24.2969 28.1198 24.2057 27.013 24.3359 25.7109C24.4401 24.6432 24.7656 23.5234 25.3125 22.3516C25.8854 21.1536 26.5755 20.0599 27.3828 19.0703C28.2161 18.0807 29.1406 17.2604 30.1562 16.6094C31.1979 15.9583 32.2396 15.6328 33.2812 15.6328C34.2708 15.6328 34.987 15.8802 35.4297 16.375C35.8724 16.8698 36.0677 17.4818 36.0156 18.2109C35.9375 19.0182 35.7031 19.7604 35.3125 20.4375C34.9479 21.1146 34.5052 21.7266 33.9844 22.2734C33.4635 22.8203 32.9036 23.3151 32.3047 23.7578C31.7318 24.2005 31.1849 24.6042 30.6641 24.9688C30.0911 25.3594 29.5443 25.737 29.0234 26.1016C28.5026 26.4401 28.0469 26.7526 27.6562 27.0391C27.6823 27.6901 27.7995 28.237 28.0078 28.6797C28.2161 29.1224 28.4766 29.487 28.7891 29.7734C29.1016 30.0339 29.4531 30.2292 29.8438 30.3594C30.2604 30.4635 30.6771 30.5156 31.0938 30.5156C31.9792 30.5156 32.9036 30.2422 33.8672 29.6953C34.8307 29.1224 35.7682 28.4453 36.6797 27.6641C37.6172 26.8568 38.4766 26.0234 39.2578 25.1641C40.0651 24.3047 40.7292 23.5625 41.25 22.9375C41.4323 22.7292 41.6146 22.612 41.7969 22.5859C42.0052 22.5339 42.1615 22.5599 42.2656 22.6641C42.3958 22.7422 42.4609 22.8984 42.4609 23.1328C42.4609 23.3411 42.3698 23.5885 42.1875 23.875ZM32.1875 17.8594C31.875 17.8594 31.4974 18.0156 31.0547 18.3281C30.638 18.6406 30.2214 19.0964 29.8047 19.6953C29.388 20.2682 28.9974 20.9844 28.6328 21.8438C28.2682 22.6771 27.9948 23.6406 27.8125 24.7344C28.125 24.5 28.4635 24.2656 28.8281 24.0312C29.1927 23.7708 29.5573 23.4974 29.9219 23.2109C31.0417 22.3516 31.8229 21.5964 32.2656 20.9453C32.7083 20.2943 32.9557 19.7344 33.0078 19.2656C33.0599 18.7708 33.0078 18.4193 32.8516 18.2109C32.6953 17.9766 32.474 17.8594 32.1875 17.8594ZM50.9375 25.7891C50.6771 26.7786 50.3255 27.7031 49.8828 28.5625C49.4401 29.4219 48.9062 30.1641 48.2812 30.7891C47.6823 31.4141 46.9922 31.8958 46.2109 32.2344C45.4557 32.599 44.6224 32.7812 43.7109 32.7812C42.6432 32.7812 41.7969 32.5469 41.1719 32.0781C40.5729 31.6354 40.1172 31.0755 39.8047 30.3984C39.5182 29.7214 39.349 28.9792 39.2969 28.1719C39.2188 27.3646 39.1797 26.6094 39.1797 25.9062C39.1797 25.4115 39.2448 24.8646 39.375 24.2656C39.4792 23.6667 39.6354 23.0547 39.8438 22.4297C40.0521 21.8047 40.3125 21.1797 40.625 20.5547C40.9635 19.9297 41.3542 19.3568 41.7969 18.8359C41.9531 18.3932 42.1875 18.0026 42.5 17.6641C42.8385 17.3255 43.2161 17.0521 43.6328 16.8438C44.0755 16.6094 44.5443 16.4401 45.0391 16.3359C45.5339 16.2057 46.0156 16.1406 46.4844 16.1406C46.5625 16.1406 46.6276 16.1536 46.6797 16.1797C46.7578 16.2057 46.8359 16.2318 46.9141 16.2578C47.2526 16.2839 47.6693 16.4141 48.1641 16.6484C48.6849 16.8828 49.1797 17.2344 49.6484 17.7031C50.1432 18.1719 50.5599 18.7708 50.8984 19.5C51.237 20.2031 51.4062 21.0625 51.4062 22.0781C51.4062 22.2865 51.3932 22.5469 51.3672 22.8594C51.3411 23.1458 51.3151 23.3932 51.2891 23.6016C51.888 23.3672 52.513 23.0807 53.1641 22.7422C53.8151 22.4036 54.4401 22.0521 55.0391 21.6875C55.6641 21.2969 56.237 20.9062 56.7578 20.5156C57.2786 20.125 57.6953 19.7734 58.0078 19.4609C58.2682 19.2266 58.4896 19.0964 58.6719 19.0703C58.8542 19.0443 58.9844 19.0964 59.0625 19.2266C59.1406 19.3568 59.1536 19.5391 59.1016 19.7734C59.0495 20.0078 58.9062 20.2682 58.6719 20.5547C58.5417 20.7109 58.2031 21.0234 57.6562 21.4922C57.1354 21.9609 56.5104 22.4688 55.7812 23.0156C55.0521 23.5625 54.2578 24.0964 53.3984 24.6172C52.5391 25.138 51.7188 25.5286 50.9375 25.7891ZM44.3359 19.8516C44.2578 20.0859 44.2188 20.3333 44.2188 20.5938C44.2188 21.0104 44.2448 21.4531 44.2969 21.9219C44.349 22.3646 44.4792 22.7682 44.6875 23.1328C44.8958 23.4974 45.2214 23.8099 45.6641 24.0703C46.1328 24.3047 46.7708 24.4219 47.5781 24.4219C47.7083 24.4219 47.8385 24.4219 47.9688 24.4219C48.099 24.3958 48.2292 24.3698 48.3594 24.3438C48.4375 24.0052 48.5026 23.7057 48.5547 23.4453C48.6328 23.1589 48.6719 22.9115 48.6719 22.7031C48.724 22.2083 48.724 21.7005 48.6719 21.1797C48.6198 20.6589 48.5156 20.1901 48.3594 19.7734C48.2292 19.3307 48.0469 18.9792 47.8125 18.7188C47.6042 18.4323 47.3438 18.2891 47.0312 18.2891C46.5365 18.2891 46.0547 18.4323 45.5859 18.7188C45.1432 18.9792 44.7266 19.3568 44.3359 19.8516ZM41.8359 26.7266C41.8359 27.1953 41.862 27.6641 41.9141 28.1328C41.9661 28.5755 42.0703 28.9792 42.2266 29.3438C42.3828 29.6823 42.5911 29.9688 42.8516 30.2031C43.112 30.4115 43.4505 30.5156 43.8672 30.5156C44.3359 30.5156 44.7656 30.4115 45.1562 30.2031C45.5469 29.9688 45.8984 29.6823 46.2109 29.3438C46.5234 28.9792 46.7969 28.5755 47.0312 28.1328C47.2917 27.6641 47.513 27.1823 47.6953 26.6875C47.513 26.7135 47.3307 26.7396 47.1484 26.7656C46.9922 26.7656 46.8099 26.7656 46.6016 26.7656C45.612 26.7656 44.7526 26.4792 44.0234 25.9062C43.3203 25.3073 42.7734 24.5521 42.3828 23.6406C42.2266 24.1875 42.0964 24.7214 41.9922 25.2422C41.888 25.763 41.8359 26.2578 41.8359 26.7266ZM53.6328 31.8047C53.4505 32.0911 53.2552 32.2734 53.0469 32.3516C52.8125 32.4557 52.6172 32.4688 52.4609 32.3906C52.2786 32.3385 52.1615 32.2083 52.1094 32C52.0573 31.7917 52.1094 31.5312 52.2656 31.2188C52.3438 31.0625 52.526 30.7109 52.8125 30.1641C53.0729 29.6172 53.3984 28.9661 53.7891 28.2109C54.1536 27.4297 54.5573 26.5964 55 25.7109C55.4427 24.7995 55.8594 23.9401 56.25 23.1328C56.6667 22.3255 57.0443 21.6094 57.3828 20.9844C57.7214 20.3333 57.9688 19.8646 58.125 19.5781C57.8385 19.3177 57.6432 19.1354 57.5391 19.0312C57.4349 18.901 57.3568 18.6406 57.3047 18.25C57.2526 17.9115 57.3307 17.4688 57.5391 16.9219C57.7474 16.375 58.0208 15.8542 58.3594 15.3594C58.6979 14.8385 59.0755 14.3958 59.4922 14.0312C59.9089 13.6667 60.3125 13.4844 60.7031 13.4844C61.4323 13.4844 61.9401 13.7188 62.2266 14.1875C62.5391 14.6562 62.7214 15.138 62.7734 15.6328C62.8255 15.9714 62.7995 16.401 62.6953 16.9219C62.5911 17.4427 62.3958 17.9115 62.1094 18.3281C62.1875 18.3802 62.2917 18.4453 62.4219 18.5234C62.5521 18.5755 62.7604 18.6016 63.0469 18.6016C63.4635 18.6016 63.75 18.5755 63.9062 18.5234C64.0885 18.4714 64.362 18.4453 64.7266 18.4453C65.1693 18.4453 65.5339 18.5625 65.8203 18.7969C66.1068 19.0052 66.3411 19.2786 66.5234 19.6172C66.7057 19.9297 66.8359 20.2812 66.9141 20.6719C67.0182 21.0365 67.0833 21.375 67.1094 21.6875C67.1875 22.3385 67.0182 23.0156 66.6016 23.7188C66.1849 24.4219 65.6771 25.1901 65.0781 26.0234C64.7135 26.5443 64.349 27.1302 63.9844 27.7812C63.6198 28.4323 63.4635 29.0182 63.5156 29.5391C63.5677 29.8776 63.6589 30.151 63.7891 30.3594C63.9193 30.5677 64.2839 30.6719 64.8828 30.6719C65.3255 30.6719 65.8073 30.5156 66.3281 30.2031C66.875 29.8646 67.4219 29.4479 67.9688 28.9531C68.5417 28.4323 69.1016 27.8724 69.6484 27.2734C70.1953 26.6484 70.7031 26.0495 71.1719 25.4766C71.6406 24.8776 72.0312 24.3438 72.3438 23.875C72.6823 23.4062 72.9297 23.0677 73.0859 22.8594C73.2161 22.651 73.3854 22.5078 73.5938 22.4297C73.8021 22.3516 73.9844 22.3516 74.1406 22.4297C74.2969 22.5078 74.388 22.6641 74.4141 22.8984C74.4661 23.1328 74.375 23.4453 74.1406 23.8359C73.9844 24.0964 73.7109 24.513 73.3203 25.0859C72.9557 25.6589 72.5 26.2969 71.9531 27C71.4323 27.7031 70.8464 28.4323 70.1953 29.1875C69.5443 29.9167 68.8542 30.5938 68.125 31.2188C67.4219 31.8177 66.7057 32.3125 65.9766 32.7031C65.2734 33.0938 64.5964 33.2891 63.9453 33.2891C63.2682 33.2891 62.7083 33.1589 62.2656 32.8984C61.8229 32.638 61.4583 32.3255 61.1719 31.9609C60.9115 31.5703 60.7161 31.1536 60.5859 30.7109C60.4818 30.2422 60.4427 29.8125 60.4688 29.4219C60.4948 29.1094 60.5729 28.7839 60.7031 28.4453C60.8594 28.0807 61.0286 27.7161 61.2109 27.3516C61.4193 26.9609 61.6276 26.5833 61.8359 26.2188C62.0703 25.8281 62.2786 25.4505 62.4609 25.0859C62.9036 24.3307 63.2552 23.6927 63.5156 23.1719C63.8021 22.625 63.9453 22.1693 63.9453 21.8047C63.9453 21.5703 63.8932 21.362 63.7891 21.1797C63.6849 20.9974 63.5156 20.9062 63.2812 20.9062C63.125 20.9062 63.0078 20.9193 62.9297 20.9453C62.8776 20.9453 62.8125 20.9453 62.7344 20.9453C62.6823 20.9453 62.5911 20.9583 62.4609 20.9844C62.3568 20.9844 62.1875 20.9844 61.9531 20.9844C61.6146 20.9844 61.3281 20.9323 61.0938 20.8281C60.8594 20.724 60.638 20.6458 60.4297 20.5938C60.3255 20.776 60.0911 21.1667 59.7266 21.7656C59.362 22.3646 58.9323 23.0677 58.4375 23.875C57.9688 24.6823 57.4609 25.5286 56.9141 26.4141C56.3932 27.2995 55.8984 28.1328 55.4297 28.9141C54.9609 29.6693 54.5703 30.3203 54.2578 30.8672C53.9193 31.388 53.7109 31.7005 53.6328 31.8047ZM81.6797 37.5859C81.5495 38.2109 81.3802 38.9922 81.1719 39.9297C80.9896 40.8672 80.7682 41.8568 80.5078 42.8984C80.2734 43.9401 79.987 44.9688 79.6484 45.9844C79.3359 47.026 78.9844 47.9505 78.5938 48.7578C78.2031 49.5911 77.7734 50.2682 77.3047 50.7891C76.8359 51.3099 76.3151 51.5703 75.7422 51.5703C74.8828 51.5703 74.1406 51.3099 73.5156 50.7891C72.9167 50.2943 72.4089 49.6562 71.9922 48.875C71.5755 48.1198 71.276 47.2995 71.0938 46.4141C70.8854 45.5286 70.7812 44.7083 70.7812 43.9531C70.7812 42.9115 70.8724 42.0391 71.0547 41.3359C71.237 40.6589 71.5495 40.0078 71.9922 39.3828C72.4609 38.7578 73.0859 38.0938 73.8672 37.3906C74.6484 36.6875 75.651 35.8151 76.875 34.7734C77.474 34.2526 78.0469 33.7578 78.5938 33.2891C79.1406 32.8203 79.6615 32.3906 80.1562 32C80.2865 31.4792 80.4036 30.9974 80.5078 30.5547C80.638 30.0859 80.7422 29.6693 80.8203 29.3047C80.1432 30.2161 79.3229 30.9844 78.3594 31.6094C77.4219 32.2344 76.3411 32.5469 75.1172 32.5469C73.9974 32.5469 73.0859 32.0521 72.3828 31.0625C71.7057 30.0469 71.3672 28.5625 71.3672 26.6094C71.3672 25.6458 71.5495 24.5391 71.9141 23.2891C72.2786 22.0391 72.7995 20.8672 73.4766 19.7734C74.1536 18.6797 74.987 17.7552 75.9766 17C76.9661 16.2448 78.0729 15.8672 79.2969 15.8672C79.8698 15.8672 80.3646 16.0104 80.7812 16.2969C81.1979 16.5833 81.5495 16.9479 81.8359 17.3906C82.1224 17.8073 82.3438 18.263 82.5 18.7578C82.6562 19.2266 82.7734 19.6693 82.8516 20.0859C82.9036 19.9297 82.9427 19.7734 82.9688 19.6172C82.9948 19.4349 83.0339 19.2786 83.0859 19.1484C83.3464 18.263 83.6328 17.6641 83.9453 17.3516C84.2839 17.013 84.7786 16.8438 85.4297 16.8438C85.7943 16.8438 86.0938 16.9089 86.3281 17.0391C86.5885 17.1693 86.7188 17.2865 86.7188 17.3906C86.5885 17.6771 86.4844 17.8984 86.4062 18.0547C86.3281 18.2109 86.25 18.3802 86.1719 18.5625C86.0938 18.7188 86.0156 18.9271 85.9375 19.1875C85.8594 19.4479 85.7552 19.8255 85.625 20.3203C85.5729 20.5026 85.4688 20.9323 85.3125 21.6094C85.1823 22.2604 85 23.0417 84.7656 23.9531C84.5573 24.8646 84.3229 25.8672 84.0625 26.9609C83.8281 28.0547 83.5938 29.1224 83.3594 30.1641C84.0885 29.7474 84.8438 29.2396 85.625 28.6406C86.4062 28.0417 87.1484 27.4297 87.8516 26.8047C88.5547 26.1797 89.1797 25.5938 89.7266 25.0469C90.2734 24.474 90.6771 24.0052 90.9375 23.6406C91.1458 23.3281 91.3802 23.1068 91.6406 22.9766C91.901 22.8464 92.1224 22.8073 92.3047 22.8594C92.513 22.8854 92.6302 23.0026 92.6562 23.2109C92.7083 23.3932 92.6302 23.6536 92.4219 23.9922C91.8229 24.9557 91.0938 25.8932 90.2344 26.8047C89.375 27.6901 88.4896 28.5234 87.5781 29.3047C86.6927 30.0599 85.8203 30.737 84.9609 31.3359C84.1276 31.9089 83.4115 32.3776 82.8125 32.7422C82.5521 33.9141 82.3307 34.8646 82.1484 35.5938C81.9661 36.3229 81.8099 36.987 81.6797 37.5859ZM76.7578 29.8906C77.3047 29.8906 77.8125 29.7474 78.2812 29.4609C78.776 29.1745 79.2188 28.849 79.6094 28.4844C80 28.0938 80.3255 27.7031 80.5859 27.3125C80.8464 26.9219 81.0417 26.6094 81.1719 26.375C81.276 26.1406 81.3932 25.8281 81.5234 25.4375C81.6797 25.0469 81.7969 24.6693 81.875 24.3047C81.9531 23.9401 81.9792 23.6146 81.9531 23.3281C81.9531 23.0417 81.862 22.8854 81.6797 22.8594C81.5234 22.8333 81.3932 22.7292 81.2891 22.5469C81.2109 22.3646 81.1458 22.1562 81.0938 21.9219C81.0417 21.6875 81.0026 21.4531 80.9766 21.2188C80.9766 20.9844 80.9635 20.776 80.9375 20.5938C80.8073 19.6823 80.5859 19.0182 80.2734 18.6016C79.9609 18.1849 79.6094 17.9766 79.2188 17.9766C78.5677 17.9766 77.9427 18.237 77.3438 18.7578C76.7708 19.2786 76.25 19.9557 75.7812 20.7891C75.3385 21.5964 74.987 22.4948 74.7266 23.4844C74.4661 24.4479 74.3359 25.3724 74.3359 26.2578C74.3359 27.3516 74.4922 28.237 74.8047 28.9141C75.1172 29.5651 75.7682 29.8906 76.7578 29.8906ZM74.9609 48.0156C75.4818 48.0156 75.8984 47.625 76.2109 46.8438C76.5495 46.0885 76.901 45.0469 77.2656 43.7188C77.3438 43.4062 77.4479 42.9505 77.5781 42.3516C77.7344 41.7786 77.9036 41.1146 78.0859 40.3594C78.2943 39.6042 78.5026 38.7839 78.7109 37.8984C78.9193 37.0391 79.1406 36.1667 79.375 35.2812C79.1667 35.4635 78.9453 35.6458 78.7109 35.8281C78.5026 36.0365 78.2812 36.2708 78.0469 36.5312C77.474 37.0781 76.9141 37.599 76.3672 38.0938C75.8464 38.6146 75.3776 39.1484 74.9609 39.6953C74.5443 40.2682 74.2057 40.8802 73.9453 41.5312C73.7109 42.1823 73.5938 42.9375 73.5938 43.7969C73.5938 44.6562 73.6198 45.3594 73.6719 45.9062C73.75 46.4531 73.8411 46.8828 73.9453 47.1953C74.0755 47.5078 74.2188 47.7161 74.375 47.8203C74.5573 47.9505 74.7526 48.0156 74.9609 48.0156ZM107.461 23.875C106.68 25.0208 105.794 26.1406 104.805 27.2344C103.815 28.3021 102.76 29.2656 101.641 30.125C100.547 30.9583 99.4141 31.6354 98.2422 32.1562C97.0964 32.6771 95.9766 32.9375 94.8828 32.9375C94.3099 32.9375 93.6849 32.7943 93.0078 32.5078C92.3568 32.2474 91.7578 31.8307 91.2109 31.2578C90.6641 30.6849 90.2214 29.9427 89.8828 29.0312C89.5703 28.1198 89.4792 27.013 89.6094 25.7109C89.7135 24.6432 90.0391 23.5234 90.5859 22.3516C91.1589 21.1536 91.849 20.0599 92.6562 19.0703C93.4896 18.0807 94.4141 17.2604 95.4297 16.6094C96.4714 15.9583 97.513 15.6328 98.5547 15.6328C99.5443 15.6328 100.26 15.8802 100.703 16.375C101.146 16.8698 101.341 17.4818 101.289 18.2109C101.211 19.0182 100.977 19.7604 100.586 20.4375C100.221 21.1146 99.7786 21.7266 99.2578 22.2734C98.737 22.8203 98.1771 23.3151 97.5781 23.7578C97.0052 24.2005 96.4583 24.6042 95.9375 24.9688C95.3646 25.3594 94.8177 25.737 94.2969 26.1016C93.776 26.4401 93.3203 26.7526 92.9297 27.0391C92.9557 27.6901 93.0729 28.237 93.2812 28.6797C93.4896 29.1224 93.75 29.487 94.0625 29.7734C94.375 30.0339 94.7266 30.2292 95.1172 30.3594C95.5339 30.4635 95.9505 30.5156 96.3672 30.5156C97.2526 30.5156 98.1771 30.2422 99.1406 29.6953C100.104 29.1224 101.042 28.4453 101.953 27.6641C102.891 26.8568 103.75 26.0234 104.531 25.1641C105.339 24.3047 106.003 23.5625 106.523 22.9375C106.706 22.7292 106.888 22.612 107.07 22.5859C107.279 22.5339 107.435 22.5599 107.539 22.6641C107.669 22.7422 107.734 22.8984 107.734 23.1328C107.734 23.3411 107.643 23.5885 107.461 23.875ZM97.4609 17.8594C97.1484 17.8594 96.7708 18.0156 96.3281 18.3281C95.9115 18.6406 95.4948 19.0964 95.0781 19.6953C94.6615 20.2682 94.2708 20.9844 93.9062 21.8438C93.5417 22.6771 93.2682 23.6406 93.0859 24.7344C93.3984 24.5 93.737 24.2656 94.1016 24.0312C94.4661 23.7708 94.8307 23.4974 95.1953 23.2109C96.3151 22.3516 97.0964 21.5964 97.5391 20.9453C97.9818 20.2943 98.2292 19.7344 98.2812 19.2656C98.3333 18.7708 98.2812 18.4193 98.125 18.2109C97.9688 17.9766 97.7474 17.8594 97.4609 17.8594ZM118.672 25.4766C119.219 24.7995 119.857 24.0182 120.586 23.1328C121.315 22.2214 122.083 21.2708 122.891 20.2812C123.724 19.2656 124.557 18.224 125.391 17.1562C126.25 16.0625 127.057 15.0078 127.812 13.9922C128.568 12.9766 129.245 12.013 129.844 11.1016C130.443 10.1901 130.924 9.38281 131.289 8.67969C131.445 8.34115 131.576 8.01562 131.68 7.70312C131.784 7.41667 131.862 7.13021 131.914 6.84375C131.992 6.53125 132.005 6.23177 131.953 5.94531C131.198 5.94531 130.299 5.97135 129.258 6.02344C128.216 6.04948 127.109 6.1276 125.938 6.25781C124.792 6.38802 123.633 6.58333 122.461 6.84375C121.315 7.10417 120.26 7.46875 119.297 7.9375C119.167 7.83333 119.076 7.66406 119.023 7.42969C118.997 7.19531 119.01 6.9349 119.062 6.64844C119.089 6.36198 119.154 6.02344 119.258 5.63281C119.362 5.29427 119.479 4.98177 119.609 4.69531C119.74 4.46094 119.87 4.22656 120 3.99219C120.156 3.75781 120.339 3.58854 120.547 3.48438C121.536 3.35417 122.461 3.25 123.32 3.17188C124.18 3.09375 124.948 3.02865 125.625 2.97656C126.406 2.92448 127.122 2.89844 127.773 2.89844C128.685 2.92448 129.57 2.95052 130.43 2.97656C131.185 3.02865 131.979 3.08073 132.812 3.13281C133.672 3.15885 134.466 3.23698 135.195 3.36719C135.326 3.73177 135.417 4.10938 135.469 4.5C135.547 4.89062 135.599 5.24219 135.625 5.55469C135.651 5.91927 135.664 6.28385 135.664 6.64844C135.612 7.5599 135.208 8.74479 134.453 10.2031C133.698 11.6615 132.734 13.1719 131.562 14.7344C131.172 15.2292 130.677 15.8542 130.078 16.6094C129.479 17.3385 128.802 18.1589 128.047 19.0703C127.318 19.9557 126.536 20.9062 125.703 21.9219C124.896 22.9115 124.076 23.9141 123.242 24.9297C122.435 25.9193 121.641 26.9089 120.859 27.8984C120.104 28.862 119.427 29.7604 118.828 30.5938C118.151 31.5052 117.578 32.3906 117.109 33.25C116.667 34.1354 116.315 34.9036 116.055 35.5547C116.732 35.2943 117.773 34.9948 119.18 34.6562C120.586 34.3438 122.253 34.1875 124.18 34.1875C125.195 34.1875 126.146 34.2266 127.031 34.3047C127.786 34.3568 128.529 34.4479 129.258 34.5781C130.013 34.7344 130.573 34.9297 130.938 35.1641C130.885 35.4245 130.755 35.737 130.547 36.1016C130.365 36.4141 130.078 36.7917 129.688 37.2344C129.297 37.7031 128.763 38.237 128.086 38.8359C127.07 38.6276 126.12 38.4583 125.234 38.3281C124.349 38.224 123.568 38.1458 122.891 38.0938C122.109 38.0156 121.393 37.9766 120.742 37.9766C120.091 37.9766 119.388 38.0286 118.633 38.1328C117.982 38.2109 117.24 38.3151 116.406 38.4453C115.599 38.6016 114.74 38.8229 113.828 39.1094C113.568 38.9531 113.372 38.6797 113.242 38.2891C113.086 37.8984 112.969 37.5078 112.891 37.1172C112.786 36.6484 112.708 36.1406 112.656 35.5938C113.333 34.0573 114.036 32.6771 114.766 31.4531C115.469 30.2031 116.12 29.1354 116.719 28.25C117.396 27.2083 118.047 26.2839 118.672 25.4766ZM145.625 25.7891C145.365 26.7786 145.013 27.7031 144.57 28.5625C144.128 29.4219 143.594 30.1641 142.969 30.7891C142.37 31.4141 141.68 31.8958 140.898 32.2344C140.143 32.599 139.31 32.7812 138.398 32.7812C137.331 32.7812 136.484 32.5469 135.859 32.0781C135.26 31.6354 134.805 31.0755 134.492 30.3984C134.206 29.7214 134.036 28.9792 133.984 28.1719C133.906 27.3646 133.867 26.6094 133.867 25.9062C133.867 25.4115 133.932 24.8646 134.062 24.2656C134.167 23.6667 134.323 23.0547 134.531 22.4297C134.74 21.8047 135 21.1797 135.312 20.5547C135.651 19.9297 136.042 19.3568 136.484 18.8359C136.641 18.3932 136.875 18.0026 137.188 17.6641C137.526 17.3255 137.904 17.0521 138.32 16.8438C138.763 16.6094 139.232 16.4401 139.727 16.3359C140.221 16.2057 140.703 16.1406 141.172 16.1406C141.25 16.1406 141.315 16.1536 141.367 16.1797C141.445 16.2057 141.523 16.2318 141.602 16.2578C141.94 16.2839 142.357 16.4141 142.852 16.6484C143.372 16.8828 143.867 17.2344 144.336 17.7031C144.831 18.1719 145.247 18.7708 145.586 19.5C145.924 20.2031 146.094 21.0625 146.094 22.0781C146.094 22.2865 146.081 22.5469 146.055 22.8594C146.029 23.1458 146.003 23.3932 145.977 23.6016C146.576 23.3672 147.201 23.0807 147.852 22.7422C148.503 22.4036 149.128 22.0521 149.727 21.6875C150.352 21.2969 150.924 20.9062 151.445 20.5156C151.966 20.125 152.383 19.7734 152.695 19.4609C152.956 19.2266 153.177 19.0964 153.359 19.0703C153.542 19.0443 153.672 19.0964 153.75 19.2266C153.828 19.3568 153.841 19.5391 153.789 19.7734C153.737 20.0078 153.594 20.2682 153.359 20.5547C153.229 20.7109 152.891 21.0234 152.344 21.4922C151.823 21.9609 151.198 22.4688 150.469 23.0156C149.74 23.5625 148.945 24.0964 148.086 24.6172C147.227 25.138 146.406 25.5286 145.625 25.7891ZM139.023 19.8516C138.945 20.0859 138.906 20.3333 138.906 20.5938C138.906 21.0104 138.932 21.4531 138.984 21.9219C139.036 22.3646 139.167 22.7682 139.375 23.1328C139.583 23.4974 139.909 23.8099 140.352 24.0703C140.82 24.3047 141.458 24.4219 142.266 24.4219C142.396 24.4219 142.526 24.4219 142.656 24.4219C142.786 24.3958 142.917 24.3698 143.047 24.3438C143.125 24.0052 143.19 23.7057 143.242 23.4453C143.32 23.1589 143.359 22.9115 143.359 22.7031C143.411 22.2083 143.411 21.7005 143.359 21.1797C143.307 20.6589 143.203 20.1901 143.047 19.7734C142.917 19.3307 142.734 18.9792 142.5 18.7188C142.292 18.4323 142.031 18.2891 141.719 18.2891C141.224 18.2891 140.742 18.4323 140.273 18.7188C139.831 18.9792 139.414 19.3568 139.023 19.8516ZM136.523 26.7266C136.523 27.1953 136.549 27.6641 136.602 28.1328C136.654 28.5755 136.758 28.9792 136.914 29.3438C137.07 29.6823 137.279 29.9688 137.539 30.2031C137.799 30.4115 138.138 30.5156 138.555 30.5156C139.023 30.5156 139.453 30.4115 139.844 30.2031C140.234 29.9688 140.586 29.6823 140.898 29.3438C141.211 28.9792 141.484 28.5755 141.719 28.1328C141.979 27.6641 142.201 27.1823 142.383 26.6875C142.201 26.7135 142.018 26.7396 141.836 26.7656C141.68 26.7656 141.497 26.7656 141.289 26.7656C140.299 26.7656 139.44 26.4792 138.711 25.9062C138.008 25.3073 137.461 24.5521 137.07 23.6406C136.914 24.1875 136.784 24.7214 136.68 25.2422C136.576 25.763 136.523 26.2578 136.523 26.7266ZM148.32 31.8047C148.138 32.0911 147.943 32.2734 147.734 32.3516C147.5 32.4557 147.305 32.4688 147.148 32.3906C146.966 32.3385 146.849 32.2083 146.797 32C146.745 31.7917 146.797 31.5312 146.953 31.2188C147.031 31.0625 147.214 30.7109 147.5 30.1641C147.76 29.6172 148.086 28.9661 148.477 28.2109C148.841 27.4297 149.245 26.5964 149.688 25.7109C150.13 24.7995 150.547 23.9401 150.938 23.1328C151.354 22.3255 151.732 21.6094 152.07 20.9844C152.409 20.3333 152.656 19.8646 152.812 19.5781C152.526 19.3177 152.331 19.1354 152.227 19.0312C152.122 18.901 152.044 18.6406 151.992 18.25C151.94 17.9115 152.018 17.4688 152.227 16.9219C152.435 16.375 152.708 15.8542 153.047 15.3594C153.385 14.8385 153.763 14.3958 154.18 14.0312C154.596 13.6667 155 13.4844 155.391 13.4844C156.12 13.4844 156.628 13.7188 156.914 14.1875C157.227 14.6562 157.409 15.138 157.461 15.6328C157.513 15.9714 157.487 16.401 157.383 16.9219C157.279 17.4427 157.083 17.9115 156.797 18.3281C156.875 18.3802 156.979 18.4453 157.109 18.5234C157.24 18.5755 157.448 18.6016 157.734 18.6016C158.151 18.6016 158.438 18.5755 158.594 18.5234C158.776 18.4714 159.049 18.4453 159.414 18.4453C159.857 18.4453 160.221 18.5625 160.508 18.7969C160.794 19.0052 161.029 19.2786 161.211 19.6172C161.393 19.9297 161.523 20.2812 161.602 20.6719C161.706 21.0365 161.771 21.375 161.797 21.6875C161.875 22.3385 161.706 23.0156 161.289 23.7188C160.872 24.4219 160.365 25.1901 159.766 26.0234C159.401 26.5443 159.036 27.1302 158.672 27.7812C158.307 28.4323 158.151 29.0182 158.203 29.5391C158.255 29.8776 158.346 30.151 158.477 30.3594C158.607 30.5677 158.971 30.6719 159.57 30.6719C160.013 30.6719 160.495 30.5156 161.016 30.2031C161.562 29.8646 162.109 29.4479 162.656 28.9531C163.229 28.4323 163.789 27.8724 164.336 27.2734C164.883 26.6484 165.391 26.0495 165.859 25.4766C166.328 24.8776 166.719 24.3438 167.031 23.875C167.37 23.4062 167.617 23.0677 167.773 22.8594C167.904 22.651 168.073 22.5078 168.281 22.4297C168.49 22.3516 168.672 22.3516 168.828 22.4297C168.984 22.5078 169.076 22.6641 169.102 22.8984C169.154 23.1328 169.062 23.4453 168.828 23.8359C168.672 24.0964 168.398 24.513 168.008 25.0859C167.643 25.6589 167.188 26.2969 166.641 27C166.12 27.7031 165.534 28.4323 164.883 29.1875C164.232 29.9167 163.542 30.5938 162.812 31.2188C162.109 31.8177 161.393 32.3125 160.664 32.7031C159.961 33.0938 159.284 33.2891 158.633 33.2891C157.956 33.2891 157.396 33.1589 156.953 32.8984C156.51 32.638 156.146 32.3255 155.859 31.9609C155.599 31.5703 155.404 31.1536 155.273 30.7109C155.169 30.2422 155.13 29.8125 155.156 29.4219C155.182 29.1094 155.26 28.7839 155.391 28.4453C155.547 28.0807 155.716 27.7161 155.898 27.3516C156.107 26.9609 156.315 26.5833 156.523 26.2188C156.758 25.8281 156.966 25.4505 157.148 25.0859C157.591 24.3307 157.943 23.6927 158.203 23.1719C158.49 22.625 158.633 22.1693 158.633 21.8047C158.633 21.5703 158.581 21.362 158.477 21.1797C158.372 20.9974 158.203 20.9062 157.969 20.9062C157.812 20.9062 157.695 20.9193 157.617 20.9453C157.565 20.9453 157.5 20.9453 157.422 20.9453C157.37 20.9453 157.279 20.9583 157.148 20.9844C157.044 20.9844 156.875 20.9844 156.641 20.9844C156.302 20.9844 156.016 20.9323 155.781 20.8281C155.547 20.724 155.326 20.6458 155.117 20.5938C155.013 20.776 154.779 21.1667 154.414 21.7656C154.049 22.3646 153.62 23.0677 153.125 23.875C152.656 24.6823 152.148 25.5286 151.602 26.4141C151.081 27.2995 150.586 28.1328 150.117 28.9141C149.648 29.6693 149.258 30.3203 148.945 30.8672C148.607 31.388 148.398 31.7005 148.32 31.8047ZM186.094 24.2266C185.729 24.7474 185.26 25.3984 184.688 26.1797C184.115 26.9349 183.516 27.7031 182.891 28.4844C182.292 29.2396 181.693 29.9427 181.094 30.5938C180.521 31.2188 180.039 31.6615 179.648 31.9219C179.388 32.0781 179.089 32.2083 178.75 32.3125C178.411 32.4167 178.06 32.4818 177.695 32.5078C177.357 32.5339 177.031 32.5078 176.719 32.4297C176.406 32.3776 176.133 32.2734 175.898 32.1172C175.664 31.9349 175.469 31.6745 175.312 31.3359C175.182 31.0495 175.052 30.6719 174.922 30.2031C174.818 29.7344 174.779 29.1484 174.805 28.4453C174.18 29.487 173.49 30.2943 172.734 30.8672C171.979 31.4141 171.263 31.8177 170.586 32.0781C169.805 32.3646 169.023 32.5339 168.242 32.5859C167.878 32.5859 167.487 32.4557 167.07 32.1953C166.654 31.9609 166.302 31.5833 166.016 31.0625C165.729 30.5156 165.547 29.8255 165.469 28.9922C165.391 28.1328 165.495 27.1172 165.781 25.9453C166.146 24.3568 166.719 22.9115 167.5 21.6094C168.307 20.3073 169.18 19.2005 170.117 18.2891C171.055 17.3516 171.979 16.6484 172.891 16.1797C173.802 15.7109 174.557 15.5026 175.156 15.5547C175.859 15.6849 176.432 15.8932 176.875 16.1797C177.24 16.4401 177.474 16.8307 177.578 17.3516C177.708 17.8464 177.5 18.5104 176.953 19.3438C177.318 19.2656 177.617 19.2135 177.852 19.1875C178.112 19.1615 178.307 19.1484 178.438 19.1484C178.594 19.1484 178.698 19.1615 178.75 19.1875C178.776 19.2396 178.789 19.3568 178.789 19.5391C178.789 19.6953 178.75 19.9948 178.672 20.4375C178.594 20.8802 178.477 21.4792 178.32 22.2344C178.164 22.9896 177.956 23.9661 177.695 25.1641C177.643 25.3984 177.591 25.6198 177.539 25.8281C177.513 26.0104 177.474 26.2057 177.422 26.4141C177.396 26.5964 177.357 26.8177 177.305 27.0781C177.253 27.3385 177.188 27.6641 177.109 28.0547C177.083 28.2891 177.07 28.5495 177.07 28.8359C177.096 29.0964 177.148 29.3438 177.227 29.5781C177.305 29.8125 177.422 30.0078 177.578 30.1641C177.76 30.2943 178.008 30.3594 178.32 30.3594C178.581 30.3594 178.919 30.2031 179.336 29.8906C179.753 29.5521 180.195 29.1354 180.664 28.6406C181.133 28.1198 181.615 27.5599 182.109 26.9609C182.63 26.3359 183.112 25.737 183.555 25.1641C183.997 24.5911 184.388 24.0833 184.727 23.6406C185.091 23.1979 185.352 22.8724 185.508 22.6641C185.716 22.4297 185.924 22.2995 186.133 22.2734C186.341 22.2214 186.497 22.2734 186.602 22.4297C186.706 22.5859 186.719 22.8203 186.641 23.1328C186.589 23.4453 186.406 23.8099 186.094 24.2266ZM174.648 25.9453C174.779 25.4245 174.935 24.8125 175.117 24.1094C175.299 23.4062 175.456 22.7292 175.586 22.0781C175.716 21.4271 175.807 20.8932 175.859 20.4766C175.938 20.0339 175.924 19.8255 175.82 19.8516C175.69 19.8776 175.547 19.9167 175.391 19.9688C175.26 20.0208 175.091 20.0599 174.883 20.0859C174.674 20.112 174.466 20.151 174.258 20.2031C174.466 19.7865 174.583 19.4479 174.609 19.1875C174.661 18.901 174.674 18.6797 174.648 18.5234C174.622 18.3411 174.57 18.1979 174.492 18.0938C174.206 17.8594 173.698 18.0547 172.969 18.6797C172.266 19.2786 171.445 20.3984 170.508 22.0391C170.117 22.7161 169.805 23.4453 169.57 24.2266C169.336 24.9818 169.167 25.6979 169.062 26.375C168.984 27.0521 168.971 27.651 169.023 28.1719C169.076 28.6667 169.18 28.9922 169.336 29.1484C169.622 29.4349 169.948 29.5781 170.312 29.5781C170.677 29.5521 171.042 29.4479 171.406 29.2656C171.797 29.0573 172.174 28.7969 172.539 28.4844C172.93 28.1719 173.268 27.8464 173.555 27.5078C173.867 27.1693 174.115 26.8568 174.297 26.5703C174.505 26.2839 174.622 26.0755 174.648 25.9453ZM203.516 24.2266C202.917 25.2161 202.227 26.2448 201.445 27.3125C200.69 28.3542 199.883 29.3177 199.023 30.2031C198.164 31.0625 197.279 31.7786 196.367 32.3516C195.456 32.9245 194.544 33.2109 193.633 33.2109C192.721 33.2109 192.057 32.8984 191.641 32.2734C191.25 31.6745 191.068 30.9974 191.094 30.2422C191.094 29.9036 191.12 29.6042 191.172 29.3438C191.25 29.0833 191.328 28.849 191.406 28.6406C191.484 28.4323 191.562 28.224 191.641 28.0156C191.745 27.7812 191.836 27.5208 191.914 27.2344C192.018 26.8958 192.018 26.5964 191.914 26.3359C191.836 26.0495 191.732 25.8021 191.602 25.5938C191.367 25.8542 191.094 26.0885 190.781 26.2969C190.495 26.4792 190.13 26.5703 189.688 26.5703C189.375 26.5703 189.089 26.4271 188.828 26.1406C188.568 25.8281 188.438 25.4505 188.438 25.0078C188.438 24.6432 188.516 24.3438 188.672 24.1094C188.854 23.875 189.049 23.6927 189.258 23.5625C189.492 23.4323 189.727 23.3411 189.961 23.2891C190.195 23.237 190.391 23.2109 190.547 23.2109C190.625 23.2109 190.781 23.224 191.016 23.25C191.276 23.276 191.549 23.3151 191.836 23.3672C192.773 22.612 193.438 21.9349 193.828 21.3359C194.245 20.7109 194.284 20.151 193.945 19.6562C193.737 19.3177 193.477 19.1484 193.164 19.1484C192.852 19.1224 192.526 19.2005 192.188 19.3828C191.849 19.5391 191.51 19.7474 191.172 20.0078C190.859 20.2682 190.573 20.5156 190.312 20.75C189.792 21.2708 189.206 21.8958 188.555 22.625C187.93 23.3281 187.409 23.9141 186.992 24.3828C186.81 25.1641 186.628 25.9844 186.445 26.8438C186.289 27.599 186.107 28.4583 185.898 29.4219C185.716 30.3594 185.521 31.3359 185.312 32.3516C185.156 32.4297 184.987 32.4818 184.805 32.5078C184.648 32.5599 184.505 32.599 184.375 32.625C184.219 32.651 184.062 32.6641 183.906 32.6641C183.698 32.6641 183.503 32.651 183.32 32.625C183.138 32.625 182.995 32.5599 182.891 32.4297C182.76 32.3255 182.695 32.1432 182.695 31.8828C182.669 31.6224 182.734 31.2578 182.891 30.7891C183.099 30.112 183.359 29.2135 183.672 28.0938C183.984 26.9479 184.31 25.6979 184.648 24.3438C184.987 22.9896 185.326 21.5833 185.664 20.125C186.029 18.6406 186.367 17.2344 186.68 15.9062C186.992 14.5521 187.253 13.3411 187.461 12.2734C187.695 11.1797 187.865 10.3203 187.969 9.69531C188.047 9.01823 188.125 8.36719 188.203 7.74219C188.255 7.22135 188.281 6.71354 188.281 6.21875C188.307 5.69792 188.281 5.30729 188.203 5.04688C188.333 4.91667 188.516 4.79948 188.75 4.69531C188.984 4.59115 189.245 4.51302 189.531 4.46094C189.818 4.38281 190.156 4.31771 190.547 4.26562C190.99 4.21354 191.354 4.20052 191.641 4.22656C191.953 4.2526 192.174 4.38281 192.305 4.61719C192.461 4.8776 192.487 5.32031 192.383 5.94531C192.305 6.54427 192.122 7.39062 191.836 8.48438C191.471 9.89062 191.094 11.1797 190.703 12.3516C190.339 13.4974 189.974 14.5781 189.609 15.5938C189.271 16.6094 188.932 17.599 188.594 18.5625C188.281 19.5 187.995 20.4635 187.734 21.4531C188.255 20.6979 188.906 19.9036 189.688 19.0703C190.469 18.2109 191.354 17.5078 192.344 16.9609C193.385 16.4141 194.245 16.1406 194.922 16.1406C195.755 16.1406 196.354 16.4271 196.719 17C197.083 17.5469 197.253 18.1979 197.227 18.9531C197.201 19.5521 197.044 20.112 196.758 20.6328C196.497 21.1276 196.172 21.5964 195.781 22.0391C195.391 22.4557 194.974 22.8203 194.531 23.1328C194.089 23.4453 193.711 23.7057 193.398 23.9141C193.763 24.1224 194.076 24.4089 194.336 24.7734C194.622 25.112 194.753 25.5417 194.727 26.0625C194.701 26.7656 194.557 27.3906 194.297 27.9375C194.062 28.4583 193.945 28.9401 193.945 29.3828C193.971 29.7214 194.036 29.9688 194.141 30.125C194.271 30.2812 194.531 30.3594 194.922 30.3594C195.625 30.3594 196.354 30.0599 197.109 29.4609C197.891 28.862 198.62 28.1719 199.297 27.3906C199.974 26.6094 200.599 25.8411 201.172 25.0859C201.745 24.3047 202.188 23.7318 202.5 23.3672C202.943 22.8984 203.307 22.7812 203.594 23.0156C203.906 23.224 203.88 23.6276 203.516 24.2266ZM209.688 8.99219C209.609 9.27865 209.453 9.5651 209.219 9.85156C209.01 10.112 208.763 10.3333 208.477 10.5156C208.216 10.6719 207.943 10.776 207.656 10.8281C207.37 10.8802 207.135 10.8281 206.953 10.6719C206.406 10.2552 206.12 9.8125 206.094 9.34375C206.068 8.84896 206.185 8.39323 206.445 7.97656C206.706 7.53385 207.031 7.16927 207.422 6.88281C207.812 6.57031 208.151 6.38802 208.438 6.33594C208.724 6.28385 208.958 6.34896 209.141 6.53125C209.349 6.6875 209.505 6.90885 209.609 7.19531C209.714 7.45573 209.766 7.75521 209.766 8.09375C209.792 8.43229 209.766 8.73177 209.688 8.99219ZM204.297 17.3125C204.427 17.1562 204.674 17.026 205.039 16.9219C205.404 16.8177 205.781 16.7396 206.172 16.6875C206.562 16.6094 206.914 16.5703 207.227 16.5703C207.565 16.5443 207.76 16.5443 207.812 16.5703C207.839 16.5964 207.773 16.8698 207.617 17.3906C207.461 17.9115 207.266 18.5234 207.031 19.2266C206.797 19.9297 206.549 20.6589 206.289 21.4141C206.029 22.1432 205.833 22.7422 205.703 23.2109C205.573 23.6797 205.417 24.2135 205.234 24.8125C205.052 25.3854 204.883 25.9583 204.727 26.5312C204.596 27.0781 204.505 27.599 204.453 28.0938C204.401 28.5885 204.44 28.9661 204.57 29.2266C204.701 29.5391 204.844 29.7604 205 29.8906C205.156 29.9948 205.326 30.0469 205.508 30.0469C206.029 30.0469 206.68 29.7604 207.461 29.1875C208.268 28.6146 209.076 27.9375 209.883 27.1562C210.716 26.349 211.484 25.5417 212.188 24.7344C212.891 23.901 213.411 23.237 213.75 22.7422C213.958 22.4818 214.167 22.3125 214.375 22.2344C214.609 22.1562 214.792 22.1693 214.922 22.2734C215.078 22.3776 215.156 22.5469 215.156 22.7812C215.182 23.0156 215.104 23.2891 214.922 23.6016C214.505 24.3307 213.893 25.2031 213.086 26.2188C212.279 27.2083 211.419 28.1719 210.508 29.1094C209.596 30.0208 208.698 30.8021 207.812 31.4531C206.953 32.1042 206.25 32.4427 205.703 32.4688C205.26 32.4948 204.818 32.4167 204.375 32.2344C203.958 32.0781 203.568 31.8568 203.203 31.5703C202.865 31.2578 202.578 30.9062 202.344 30.5156C202.109 30.099 201.979 29.6693 201.953 29.2266C201.875 28.5755 201.875 27.6901 201.953 26.5703C202.031 25.4245 202.174 24.2656 202.383 23.0938C202.591 21.8958 202.852 20.763 203.164 19.6953C203.503 18.6276 203.88 17.8333 204.297 17.3125ZM217.578 30.6719C217.734 30.776 217.93 30.8281 218.164 30.8281C218.424 30.8281 218.672 30.776 218.906 30.6719C219.167 30.5677 219.401 30.4245 219.609 30.2422C219.844 30.0599 220.013 29.8255 220.117 29.5391C220.221 29.2526 220.221 28.849 220.117 28.3281C220.013 27.7812 219.844 27.2083 219.609 26.6094C219.401 25.9844 219.167 25.3594 218.906 24.7344C218.646 24.1094 218.424 23.5365 218.242 23.0156C218.086 22.625 217.956 22.2604 217.852 21.9219C217.747 21.6354 217.643 21.362 217.539 21.1016C217.461 20.8151 217.396 20.6198 217.344 20.5156C217.214 20.724 216.979 21.0625 216.641 21.5312C216.328 22 215.977 22.4948 215.586 23.0156C215.221 23.5104 214.87 23.9792 214.531 24.4219C214.193 24.8385 213.958 25.125 213.828 25.2812C213.62 25.5156 213.411 25.6589 213.203 25.7109C213.021 25.737 212.865 25.6979 212.734 25.5938C212.604 25.4635 212.526 25.2943 212.5 25.0859C212.5 24.8516 212.604 24.5781 212.812 24.2656C212.969 24.0573 213.203 23.7318 213.516 23.2891C213.828 22.8203 214.141 22.3516 214.453 21.8828C214.766 21.388 215.052 20.9583 215.312 20.5938C215.573 20.2031 215.716 19.9688 215.742 19.8906C215.794 19.6823 215.716 19.4089 215.508 19.0703C215.326 18.7318 215.299 18.3411 215.43 17.8984C215.534 17.5339 215.768 17.1172 216.133 16.6484C216.497 16.1536 216.927 15.7109 217.422 15.3203C217.917 14.9297 218.424 14.6432 218.945 14.4609C219.466 14.2526 219.935 14.2526 220.352 14.4609C220.69 14.6693 220.964 14.9036 221.172 15.1641C221.38 15.3984 221.458 15.6458 221.406 15.9062C221.354 16.0365 221.276 16.2057 221.172 16.4141C221.068 16.6224 220.911 16.8828 220.703 17.1953C220.495 17.4818 220.195 17.8594 219.805 18.3281C219.883 18.9271 219.987 19.474 220.117 19.9688C220.273 20.4635 220.417 20.8932 220.547 21.2578C220.703 21.7005 220.872 22.1042 221.055 22.4688C221.289 22.9375 221.536 23.4193 221.797 23.9141C222.057 24.4089 222.292 24.9036 222.5 25.3984C222.708 25.8672 222.878 26.3099 223.008 26.7266C223.138 27.1432 223.177 27.4948 223.125 27.7812C223.047 28.224 222.812 28.7578 222.422 29.3828C222.057 30.0078 221.589 30.6198 221.016 31.2188C220.469 31.7917 219.831 32.2865 219.102 32.7031C218.398 33.1198 217.656 33.3281 216.875 33.3281C216.328 33.3281 215.794 33.1589 215.273 32.8203C214.779 32.4818 214.349 32.0911 213.984 31.6484C213.646 31.1797 213.385 30.724 213.203 30.2812C213.047 29.8385 213.034 29.5 213.164 29.2656C213.32 28.9531 213.464 28.7057 213.594 28.5234C213.724 28.3411 213.919 28.1328 214.18 27.8984C214.284 27.8203 214.414 27.7292 214.57 27.625C214.701 27.5469 214.883 27.4688 215.117 27.3906C215.352 27.3125 215.625 27.2214 215.938 27.1172C216.198 27.9245 216.432 28.5625 216.641 29.0312C216.849 29.474 217.018 29.8255 217.148 30.0859C217.305 30.3724 217.448 30.5677 217.578 30.6719Z" fill="white"/>
<path d="M31.4675 66L29.4875 56.415H30.7625L32.1575 63.5775L32.42 64.9575H32.555L32.81 63.5775L34.2125 56.6625H36.05L37.4525 63.5775L37.7075 64.9575H37.8425L38.1125 63.5775L39.5075 56.415H40.7675L38.795 66H36.83L35.72 60.4875L35.195 57.69H35.075L34.5425 60.4875L33.4475 66H31.4675ZM48.3932 66V56.415H49.6232V66H48.3932ZM48.7607 66V64.9575H54.3707V66H48.7607ZM49.0982 61.6275V60.5925H54.2132V61.6275H49.0982ZM48.7532 57.4575V56.415H54.3257V57.4575H48.7532ZM63.0923 66V64.9725H66.1073C66.7573 64.9725 67.2173 64.835 67.4873 64.56C67.7623 64.28 67.8998 63.895 67.8998 63.405V63.135C67.8998 62.635 67.7598 62.2475 67.4798 61.9725C67.2048 61.6975 66.7223 61.56 66.0323 61.56H63.0998V60.5775H66.0173C66.6323 60.5775 67.0698 60.445 67.3298 60.18C67.5948 59.91 67.7273 59.5375 67.7273 59.0625V58.9275C67.7273 58.4575 67.5998 58.0925 67.3448 57.8325C67.0948 57.5675 66.6498 57.435 66.0098 57.435H63.0698V56.415H66.1223C67.1423 56.415 67.8723 56.6175 68.3123 57.0225C68.7523 57.4275 68.9723 57.9975 68.9723 58.7325V58.8825C68.9723 59.4675 68.8323 59.9275 68.5523 60.2625C68.2723 60.5975 67.8373 60.7975 67.2473 60.8625L67.2398 60.9075C67.9148 61.0075 68.4048 61.2425 68.7098 61.6125C69.0148 61.9825 69.1673 62.4975 69.1673 63.1575V63.465C69.1673 64.26 68.9373 64.8825 68.4773 65.3325C68.0173 65.7775 67.2673 66 66.2273 66H63.0923ZM62.2448 66V56.415H63.4748V66H62.2448ZM86.9647 66V64.95H89.2897C90.1397 64.95 90.7772 64.72 91.2022 64.26C91.6322 63.795 91.8472 63.1325 91.8472 62.2725V60.135C91.8472 59.27 91.6322 58.6075 91.2022 58.1475C90.7772 57.6875 90.1397 57.4575 89.2897 57.4575H86.9572V56.415H89.3347C90.5747 56.415 91.5122 56.735 92.1472 57.375C92.7822 58.01 93.0997 58.9275 93.0997 60.1275V62.28C93.0997 63.475 92.7822 64.395 92.1472 65.04C91.5122 65.68 90.5747 66 89.3347 66H86.9647ZM86.1247 66V56.415H87.3547V66H86.1247ZM101.002 66V56.415H102.232V66H101.002ZM101.369 66V64.9575H106.979V66H101.369ZM101.707 61.6275V60.5925H106.822V61.6275H101.707ZM101.362 57.4575V56.415H106.934V57.4575H101.362ZM116.976 66L114.059 56.415H115.364L117.876 65.055H118.056L120.576 56.415H121.874L118.964 66H116.976ZM129.379 66V56.415H130.609V66H129.379ZM129.746 66V64.9575H135.356V66H129.746ZM130.084 61.6275V60.5925H135.199V61.6275H130.084ZM129.739 57.4575V56.415H135.311V57.4575H129.739ZM144.475 66H143.23V56.415H144.475V66ZM143.898 64.9425H148.953V66H143.898V64.9425ZM159.497 66.18C158.287 66.18 157.367 65.8475 156.737 65.1825C156.107 64.5125 155.792 63.555 155.792 62.31V60.0975C155.792 58.8575 156.107 57.905 156.737 57.24C157.367 56.57 158.287 56.235 159.497 56.235C160.707 56.235 161.627 56.57 162.257 57.24C162.887 57.905 163.202 58.8575 163.202 60.0975V62.31C163.202 63.555 162.887 64.5125 162.257 65.1825C161.627 65.8475 160.707 66.18 159.497 66.18ZM159.497 65.1375C160.307 65.1375 160.917 64.8975 161.327 64.4175C161.737 63.9325 161.942 63.2475 161.942 62.3625V60.045C161.942 59.16 161.737 58.4775 161.327 57.9975C160.917 57.5175 160.307 57.2775 159.497 57.2775C158.692 57.2775 158.084 57.5175 157.674 57.9975C157.264 58.4775 157.059 59.16 157.059 60.045V62.3625C157.059 63.2475 157.264 63.9325 157.674 64.4175C158.084 64.8975 158.692 65.1375 159.497 65.1375ZM171.934 62.8125V61.7775H174.656C175.311 61.7775 175.786 61.615 176.081 61.29C176.376 60.96 176.524 60.5075 176.524 59.9325V59.28C176.524 58.695 176.376 58.2425 176.081 57.9225C175.791 57.6025 175.321 57.4425 174.671 57.4425H171.926V56.415H174.694C175.764 56.415 176.541 56.6675 177.026 57.1725C177.516 57.6725 177.761 58.3625 177.761 59.2425V59.9625C177.761 60.8525 177.514 61.55 177.019 62.055C176.529 62.56 175.751 62.8125 174.686 62.8125H171.934ZM171.124 66V56.415H172.346V62.085L172.354 62.64V66H171.124ZM185.532 66V56.415H186.762V66H185.532ZM185.899 66V64.9575H191.509V66H185.899ZM186.237 61.6275V60.5925H191.352V61.6275H186.237ZM185.892 57.4575V56.415H191.464V57.4575H185.892ZM204.971 66L204.701 64.035C204.651 63.665 204.566 63.345 204.446 63.075C204.326 62.8 204.141 62.585 203.891 62.43C203.646 62.275 203.296 62.1975 202.841 62.1975L200.238 62.19V61.2075L203.021 61.2C203.676 61.2 204.143 61.04 204.423 60.72C204.703 60.395 204.843 59.955 204.843 59.4V59.175C204.843 58.625 204.701 58.2 204.416 57.9C204.131 57.595 203.656 57.4425 202.991 57.4425H200.201V56.415H203.156C204.186 56.415 204.933 56.6425 205.398 57.0975C205.868 57.5475 206.103 58.17 206.103 58.965V59.22C206.103 59.845 205.956 60.3575 205.661 60.7575C205.366 61.1525 204.876 61.3925 204.191 61.4775V61.6275L203.658 61.44C204.213 61.48 204.641 61.6025 204.941 61.8075C205.246 62.0075 205.468 62.2825 205.608 62.6325C205.748 62.9825 205.856 63.4025 205.931 63.8925L206.253 66H204.971ZM199.383 66V56.415H200.606V61.5375L200.613 62.01V66H199.383Z" fill="white"/>
</svg>
