<svg width="76" height="76" viewBox="0 0 76 76" fill="none" xmlns="http://www.w3.org/2000/svg">
<path d="M35.5112 0.0204519C35.3478 0.0353079 34.8278 0.0873042 34.3597 0.124444C23.5652 1.09752 13.4542 6.9211 7.05024 15.8719C3.48426 20.8487 1.20352 26.494 0.34174 32.4735C0.0371457 34.5608 0 35.1774 0 38.0074C0 40.8375 0.0371457 41.4541 0.34174 43.5413C2.40704 57.8106 12.5627 69.7994 26.3363 74.2414C28.8027 75.0362 31.4029 75.5785 34.3597 75.9053C35.5112 76.0316 40.4888 76.0316 41.6403 75.9053C46.7441 75.3408 51.0678 74.078 55.3322 71.9016C55.9859 71.5673 56.1122 71.4782 56.0231 71.4039C55.9636 71.3593 53.1777 67.623 49.8346 63.1068L43.7576 54.8988L36.1427 43.6305C31.9527 37.4355 28.5056 32.3696 28.4759 32.3696C28.4461 32.3621 28.4164 37.3686 28.4016 43.4819C28.3793 54.1857 28.3718 54.6165 28.2381 54.8691C28.045 55.2331 27.8964 55.3816 27.5844 55.545C27.3466 55.6639 27.1386 55.6862 26.0168 55.6862H24.7316L24.3898 55.4708C24.167 55.3296 24.0035 55.1439 23.8921 54.9285L23.7361 54.5942L23.7509 39.701L23.7732 24.8004L24.0035 24.5107C24.1224 24.3547 24.375 24.1541 24.5533 24.0576C24.8579 23.909 24.9767 23.8942 26.262 23.8942C27.7775 23.8942 28.0301 23.9536 28.4239 24.3844C28.5353 24.5033 32.6585 30.7131 37.5914 38.1931C42.5243 45.6732 49.27 55.8867 52.5834 60.9007L58.601 70.0149L58.9056 69.8143C61.6024 68.0613 64.4551 65.5655 66.7136 62.9656C71.5202 57.4466 74.6182 50.7168 75.6583 43.5413C75.9629 41.4541 76 40.8375 76 38.0074C76 35.1774 75.9629 34.5608 75.6583 32.4735C73.593 18.2043 63.4373 6.21544 49.6637 1.77347C47.2344 0.986097 44.6491 0.44385 41.7517 0.117016C41.0385 0.042736 36.1279 -0.0389724 35.5112 0.0204519ZM51.0678 23.0028C51.4244 23.1811 51.7142 23.5228 51.8182 23.8793C51.8776 24.0724 51.8925 28.2024 51.8776 37.5098L51.8553 50.8654L49.5003 47.2553L47.1378 43.6453V33.9369C47.1378 27.6602 47.1675 24.1319 47.2121 23.961C47.331 23.545 47.591 23.2182 47.9476 23.0251C48.2522 22.8691 48.3636 22.8542 49.53 22.8542C50.6295 22.8542 50.8227 22.8691 51.0678 23.0028Z" fill="#333333"/>
</svg>
