<svg width="76" height="68" viewBox="0 0 76 68" fill="none" xmlns="http://www.w3.org/2000/svg">
<g clip-path="url(#clip0_19_172)">
<path d="M76 34.0077C76 29.0079 69.6951 24.2697 60.0285 21.3313C62.2593 11.5472 61.2678 3.76288 56.8993 1.27068C55.8924 0.686093 54.715 0.409183 53.4293 0.409183V3.8398C54.1419 3.8398 54.715 3.97826 55.1953 4.23978C57.3021 5.43973 58.2161 10.0088 57.5035 15.8854C57.3331 17.3315 57.0542 18.8545 56.7134 20.4083C53.6771 19.6699 50.362 19.1007 46.8765 18.7315C44.7852 15.8854 42.6164 13.3009 40.4321 11.0395C45.4823 6.37815 50.2226 3.82442 53.4448 3.82442V0.393799C49.1847 0.393799 43.6078 3.40905 37.969 8.63959C32.3302 3.43982 26.7534 0.455335 22.4933 0.455335V3.88595C25.7 3.88595 30.4558 6.4243 35.5059 11.0549C33.3371 13.3163 31.1684 15.8854 29.108 18.7315C25.607 19.1007 22.2919 19.6699 19.2556 20.4237C18.8993 18.8853 18.636 17.393 18.4501 15.9623C17.722 10.0857 18.6205 5.51665 20.7118 4.30132C21.1765 4.02441 21.7807 3.90134 22.4933 3.90134V0.470719C21.192 0.470719 20.0147 0.747629 18.9923 1.33222C14.6392 3.82442 13.6633 11.5933 15.9095 21.3467C6.27395 24.3004 0 29.0233 0 34.0077C0 39.0075 6.30493 43.7457 15.9715 46.6841C13.7407 56.4682 14.7322 64.2525 19.1007 66.7447C20.1076 67.3293 21.285 67.6062 22.5862 67.6062C26.8463 67.6062 32.4232 64.591 38.062 59.3604C43.7008 64.5602 49.2776 67.5447 53.5377 67.5447C54.839 67.5447 56.0163 67.2678 57.0387 66.6832C61.3918 64.191 62.3677 56.4221 60.1215 46.6687C69.726 43.7303 76 38.9921 76 34.0077ZM55.8304 23.7466C55.2572 25.7311 54.5446 27.7772 53.7391 29.8233C53.1039 28.5926 52.4378 27.3618 51.7097 26.1311C50.9971 24.9004 50.2381 23.7005 49.479 22.5313C51.6788 22.8543 53.8011 23.2543 55.8304 23.7466ZM48.7354 40.1305C47.5271 42.2073 46.2878 44.1765 45.002 46.0072C42.6938 46.2072 40.3547 46.3148 38 46.3148C35.6608 46.3148 33.3216 46.2072 31.0289 46.0226C29.7432 44.1919 28.4884 42.2381 27.2801 40.1767C26.1027 38.1614 25.0338 36.1153 24.0579 34.0538C25.0183 31.9924 26.1027 29.931 27.2646 27.9157C28.4729 25.8388 29.7122 23.8697 30.998 22.039C33.3062 21.839 35.6453 21.7313 38 21.7313C40.3392 21.7313 42.6784 21.839 44.9711 22.0236C46.2568 23.8543 47.5116 25.8081 48.7199 27.8695C49.8973 29.8848 50.9662 31.9309 51.9421 33.9923C50.9662 36.0538 49.8973 38.1152 48.7354 40.1305ZM53.7391 38.1306C54.5756 40.192 55.2882 42.2535 55.8769 44.2534C53.8475 44.7457 51.7097 45.1611 49.4945 45.4841C50.2536 44.2996 51.0126 43.0842 51.7252 41.8381C52.4378 40.6074 53.1039 39.3613 53.7391 38.1306ZM38.031 54.5453C36.5903 53.0684 35.1496 51.4223 33.7244 49.6224C35.1186 49.6839 36.5438 49.7301 37.9845 49.7301C39.4407 49.7301 40.8814 49.6993 42.2911 49.6224C40.8969 51.4223 39.4562 53.0684 38.031 54.5453ZM26.5055 45.4841C24.3057 45.1611 22.1834 44.7611 20.1541 44.2688C20.7273 42.2843 21.4399 40.2382 22.2454 38.1921C22.8806 39.4228 23.5467 40.6536 24.2748 41.8843C25.0029 43.115 25.7464 44.3149 26.5055 45.4841ZM37.9535 13.4701C39.3942 14.947 40.8349 16.5931 42.2601 18.393C40.8659 18.3315 39.4407 18.2853 38 18.2853C36.5438 18.2853 35.1031 18.3161 33.6934 18.393C35.0877 16.5931 36.5283 14.947 37.9535 13.4701ZM26.49 22.5313C25.7309 23.7158 24.9719 24.9312 24.2593 26.1773C23.5467 27.408 22.8806 28.6387 22.2454 29.8694C21.4089 27.808 20.6963 25.7465 20.1076 23.7466C22.137 23.2697 24.2748 22.8543 26.49 22.5313ZM12.4704 41.792C6.98655 39.469 3.43905 36.423 3.43905 34.0077C3.43905 31.5924 6.98655 28.531 12.4704 26.2234C13.8027 25.6542 15.2589 25.1466 16.7615 24.6697C17.6445 27.6849 18.8064 30.8232 20.247 34.0385C18.8218 37.2383 17.6755 40.3613 16.808 43.3611C15.2744 42.8842 13.8182 42.3612 12.4704 41.792ZM20.8047 63.7756C18.6979 62.5757 17.7839 58.0066 18.4965 52.13C18.6669 50.6839 18.9458 49.1609 19.2866 47.6071C22.3229 48.3455 25.638 48.9147 29.1235 49.2839C31.2148 52.13 33.3836 54.7145 35.5679 56.9759C30.5177 61.6372 25.7774 64.191 22.5552 64.191C21.8581 64.1756 21.2695 64.0371 20.8047 63.7756ZM57.5499 52.0531C58.278 57.9297 57.3795 62.4987 55.2882 63.7141C54.8235 63.991 54.2193 64.1141 53.5067 64.1141C50.3 64.1141 45.5442 61.5757 40.4941 56.9451C42.6629 54.6837 44.8316 52.1146 46.892 49.2686C50.393 48.8994 53.7081 48.3301 56.7444 47.5763C57.1007 49.1301 57.3795 50.6223 57.5499 52.0531ZM63.5141 41.792C62.1818 42.3612 60.7256 42.8689 59.223 43.3458C58.34 40.3305 57.1781 37.1922 55.7375 33.9769C57.1627 30.7771 58.309 27.6541 59.1765 24.6543C60.7101 25.1312 62.1663 25.6542 63.5296 26.2234C69.0135 28.5464 72.5609 31.5924 72.5609 34.0077C72.5455 36.423 68.998 39.4844 63.5141 41.792Z" fill="#61DBFB"/>
<path d="M37.9845 41.0382C41.8944 41.0382 45.064 37.8905 45.064 34.0077C45.064 30.1249 41.8944 26.9772 37.9845 26.9772C34.0746 26.9772 30.905 30.1249 30.905 34.0077C30.905 37.8905 34.0746 41.0382 37.9845 41.0382Z" fill="#61DBFB"/>
</g>
<defs>
<clipPath id="clip0_19_172">
<rect width="76" height="68" fill="white"/>
</clipPath>
</defs>
</svg>
