<svg width="66" height="66" viewBox="0 0 66 66" fill="none" xmlns="http://www.w3.org/2000/svg">
<g clip-path="url(#clip0_27_2)">
<path d="M0 33V66H33H66V33V0H33H0V33Z" fill="#007ACC"/>
<path d="M14.5951 33.2189L14.5742 35.9218H18.8694H23.1646L23.1646 48.1265V60.3313H26.2027H29.2408V48.1265L29.2408 35.9218H33.5361H37.8313V33.2713C37.8313 31.8046 37.7999 30.5789 37.758 30.5475C37.7265 30.5056 32.4989 30.4846 26.1608 30.4951L14.6265 30.5265L14.5951 33.2189Z" fill="white"/>
<path d="M53.2555 30.4498C54.9317 30.8688 56.2098 31.6126 57.3831 32.8279C57.9907 33.4774 58.8917 34.6612 58.965 34.9441C58.9859 35.0279 56.1155 36.9555 54.3764 38.0345C54.3136 38.0765 54.0621 37.8041 53.7793 37.385C52.9307 36.1488 52.0402 35.6145 50.6783 35.5203C48.6774 35.3841 47.3888 36.4317 47.3993 38.1812C47.3993 38.6945 47.4726 38.9984 47.6821 39.4174C48.1221 40.3288 48.9393 40.8736 51.5059 41.9841C56.2307 44.0165 58.2526 45.3574 59.5098 47.2641C60.9136 49.3907 61.2278 52.785 60.2745 55.3098C59.2269 58.0545 56.6288 59.9193 52.9726 60.5374C51.8412 60.7365 49.1593 60.705 47.944 60.485C45.2936 60.0136 42.7793 58.7041 41.2288 56.986C40.6212 56.3155 39.4374 54.566 39.5107 54.4403C39.5421 54.3984 39.8145 54.2307 40.1183 54.0526C40.4117 53.885 41.5221 53.246 42.5698 52.6384L44.4659 51.5384L44.864 52.125C45.4193 52.9736 46.6345 54.1365 47.3678 54.5241C49.4736 55.6345 52.365 55.4774 53.7897 54.1993C54.3974 53.6441 54.6488 53.0679 54.6488 52.2193C54.6488 51.4545 54.5545 51.1193 54.1564 50.5431C53.6431 49.8098 52.5955 49.1917 49.6202 47.9031C46.2155 46.4364 44.7488 45.525 43.4078 44.0793C42.6326 43.2412 41.8993 41.9003 41.5955 40.7793C41.344 39.8469 41.2812 37.5107 41.4802 36.5679C42.1821 33.2784 44.665 30.9841 48.2478 30.3031C49.4107 30.0831 52.1136 30.1669 53.2555 30.4498Z" fill="white"/>
</g>
<defs>
<clipPath id="clip0_27_2">
<rect width="66" height="66" fill="white"/>
</clipPath>
</defs>
</svg>
